<svg width="535" height="398" viewBox="0 0 535 398" fill="none" xmlns="http://www.w3.org/2000/svg">
<path d="M534.144 349.757H0V350.024H534.144V349.757Z" fill="#EBEBEB"/>
<path d="M480.623 366.946H445.241V367.213H480.623V366.946Z" fill="#EBEBEB"/>
<path d="M353.838 369.852H344.554V370.119H353.838V369.852Z" fill="#EBEBEB"/>
<path d="M444.172 357.032H423.672V357.299H444.172V357.032Z" fill="#EBEBEB"/>
<path d="M102.182 358.827H56.0425V359.094H102.182V358.827Z" fill="#EBEBEB"/>
<path d="M118.462 358.827H111.7V359.094H118.462V358.827Z" fill="#EBEBEB"/>
<path d="M240.525 363.335H140.448V363.602H240.525V363.335Z" fill="#EBEBEB"/>
<path d="M253.184 302.112H46.9086C45.2926 302.109 43.7438 301.465 42.6022 300.321C41.4605 299.178 40.8193 297.628 40.8193 296.012V6.04651C40.8334 4.43983 41.4808 2.90358 42.6209 1.77145C43.7611 0.639325 45.3018 0.00275232 46.9086 0H253.184C254.802 0 256.354 0.642669 257.498 1.78663C258.642 2.93058 259.284 4.48212 259.284 6.09992V296.012C259.284 297.63 258.642 299.181 257.498 300.325C256.354 301.469 254.802 302.112 253.184 302.112ZM46.9086 0.213658C45.3635 0.216488 43.8826 0.832266 42.791 1.92583C41.6995 3.0194 41.0864 4.50139 41.0864 6.04651V296.012C41.0864 297.557 41.6995 299.039 42.791 300.132C43.8826 301.226 45.3635 301.842 46.9086 301.845H253.184C254.73 301.842 256.212 301.226 257.306 300.133C258.399 299.04 259.014 297.558 259.017 296.012V6.04651C259.014 4.50041 258.399 3.01844 257.306 1.92518C256.212 0.831919 254.73 0.216482 253.184 0.213658H46.9086Z" fill="#EBEBEB"/>
<path d="M484.265 302.112H277.979C276.362 302.109 274.812 301.465 273.669 300.322C272.525 299.179 271.882 297.629 271.879 296.012V6.04651C271.896 4.43886 272.546 2.90262 273.687 1.77079C274.829 0.638952 276.371 0.00272231 277.979 0H484.265C485.87 0.0055599 487.408 0.643375 488.546 1.7752C489.684 2.90703 490.33 4.44168 490.344 6.04651V296.012C490.344 297.626 489.704 299.174 488.565 300.318C487.425 301.461 485.879 302.106 484.265 302.112ZM277.979 0.213658C276.433 0.216482 274.951 0.831919 273.857 1.92518C272.764 3.01844 272.149 4.50041 272.146 6.04651V296.012C272.149 297.558 272.764 299.04 273.857 300.133C274.951 301.226 276.433 301.842 277.979 301.845H484.265C485.811 301.842 487.293 301.226 488.386 300.133C489.48 299.04 490.095 297.558 490.098 296.012V6.04651C490.095 4.50041 489.48 3.01844 488.386 1.92518C487.293 0.831919 485.811 0.216482 484.265 0.213658H277.979Z" fill="#EBEBEB"/>
<path d="M265.854 50.9253H84.7578V253.814H265.854V50.9253Z" fill="#EBEBEB"/>
<path d="M265.854 54.2049H88.3149V250.225H265.854V54.2049Z" fill="#FAFAFA"/>
<path d="M94.8742 158.245V144.475H98.8055V135.288H104.051V121.518H105.365V135.288H110.61V144.475H114.541V158.245H121.763V162.177H125.043V177.261H125.694V155.617H127.66V169.388H129.626V136.602H130.94V150.372H136.185V145.789H138.151V126.763H142.093V107.747H143.407V110.365H170.295V102.502H174.878V72.3338H176.855V102.502H183.414V110.365H186.031V149.721H199.801V137.916H195.219V135.95H199.801V132.671H212.92V102.502H216.2V97.9086H231.936V102.502H233.912V144.475H241.123V163.491H245.054V148.407H248.334V144.475H255.555V130.694H259.487V121.518H264.07V107.747H265.854V250.225H88.3149V158.245H94.8742Z" fill="#F0F0F0"/>
<path d="M160.254 112.427H158.395V114.285H160.254V112.427Z" fill="#FAFAFA"/>
<path d="M160.254 115.535H158.395V117.394H160.254V115.535Z" fill="#FAFAFA"/>
<path d="M160.254 128.002H158.395V129.861H160.254V128.002Z" fill="#FAFAFA"/>
<path d="M160.254 131.111H158.395V132.97H160.254V131.111Z" fill="#FAFAFA"/>
<path d="M160.254 134.23H158.395V136.089H160.254V134.23Z" fill="#FAFAFA"/>
<path d="M160.254 143.578H158.395V145.437H160.254V143.578Z" fill="#FAFAFA"/>
<path d="M160.254 146.687H158.395V148.545H160.254V146.687Z" fill="#FAFAFA"/>
<path d="M163.203 124.883H161.344V126.742H163.203V124.883Z" fill="#FAFAFA"/>
<path d="M163.203 128.002H161.344V129.861H163.203V128.002Z" fill="#FAFAFA"/>
<path d="M163.203 131.111H161.344V132.97H163.203V131.111Z" fill="#FAFAFA"/>
<path d="M163.203 134.23H161.344V136.089H163.203V134.23Z" fill="#FAFAFA"/>
<path d="M163.203 137.35H161.344V139.209H163.203V137.35Z" fill="#FAFAFA"/>
<path d="M163.203 143.578H161.344V145.437H163.203V143.578Z" fill="#FAFAFA"/>
<path d="M163.203 146.687H161.344V148.545H163.203V146.687Z" fill="#FAFAFA"/>
<path d="M166.151 112.427H164.292V114.285H166.151V112.427Z" fill="#FAFAFA"/>
<path d="M166.151 115.535H164.292V117.394H166.151V115.535Z" fill="#FAFAFA"/>
<path d="M166.151 118.655H164.292V120.514H166.151V118.655Z" fill="#FAFAFA"/>
<path d="M166.151 121.774H164.292V123.633H166.151V121.774Z" fill="#FAFAFA"/>
<path d="M166.151 124.883H164.292V126.742H166.151V124.883Z" fill="#FAFAFA"/>
<path d="M166.151 128.002H164.292V129.861H166.151V128.002Z" fill="#FAFAFA"/>
<path d="M166.151 131.111H164.292V132.97H166.151V131.111Z" fill="#FAFAFA"/>
<path d="M166.151 134.23H164.292V136.089H166.151V134.23Z" fill="#FAFAFA"/>
<path d="M166.151 137.35H164.292V139.209H166.151V137.35Z" fill="#FAFAFA"/>
<path d="M166.151 140.458H164.292V142.317H166.151V140.458Z" fill="#FAFAFA"/>
<path d="M166.151 146.687H164.292V148.545H166.151V146.687Z" fill="#FAFAFA"/>
<path d="M169.11 112.427H167.251V114.285H169.11V112.427Z" fill="#FAFAFA"/>
<path d="M169.11 115.535H167.251V117.394H169.11V115.535Z" fill="#FAFAFA"/>
<path d="M169.11 118.655H167.251V120.514H169.11V118.655Z" fill="#FAFAFA"/>
<path d="M169.11 121.774H167.251V123.633H169.11V121.774Z" fill="#FAFAFA"/>
<path d="M169.11 124.883H167.251V126.742H169.11V124.883Z" fill="#FAFAFA"/>
<path d="M169.11 128.002H167.251V129.861H169.11V128.002Z" fill="#FAFAFA"/>
<path d="M169.11 131.111H167.251V132.97H169.11V131.111Z" fill="#FAFAFA"/>
<path d="M169.11 159.154H167.251V161.012H169.11V159.154Z" fill="#FAFAFA"/>
<path d="M172.059 112.427H170.2V114.285H172.059V112.427Z" fill="#FAFAFA"/>
<path d="M172.059 115.535H170.2V117.394H172.059V115.535Z" fill="#FAFAFA"/>
<path d="M172.059 118.655H170.2V120.514H172.059V118.655Z" fill="#FAFAFA"/>
<path d="M172.059 121.774H170.2V123.633H172.059V121.774Z" fill="#FAFAFA"/>
<path d="M172.059 124.883H170.2V126.742H172.059V124.883Z" fill="#FAFAFA"/>
<path d="M172.059 128.002H170.2V129.861H172.059V128.002Z" fill="#FAFAFA"/>
<path d="M172.059 131.111H170.2V132.97H172.059V131.111Z" fill="#FAFAFA"/>
<path d="M172.059 134.23H170.2V136.089H172.059V134.23Z" fill="#FAFAFA"/>
<path d="M172.059 152.925H170.2V154.784H172.059V152.925Z" fill="#FAFAFA"/>
<path d="M172.059 156.034H170.2V157.893H172.059V156.034Z" fill="#FAFAFA"/>
<path d="M172.059 159.154H170.2V161.012H172.059V159.154Z" fill="#FAFAFA"/>
<path d="M172.059 162.273H170.2V164.132H172.059V162.273Z" fill="#FAFAFA"/>
<path d="M172.059 174.729H170.2V176.588H172.059V174.729Z" fill="#FAFAFA"/>
<path d="M175.006 112.427H173.147V114.285H175.006V112.427Z" fill="#FAFAFA"/>
<path d="M175.006 115.535H173.147V117.394H175.006V115.535Z" fill="#FAFAFA"/>
<path d="M175.006 118.655H173.147V120.514H175.006V118.655Z" fill="#FAFAFA"/>
<path d="M175.006 121.774H173.147V123.633H175.006V121.774Z" fill="#FAFAFA"/>
<path d="M175.006 124.883H173.147V126.742H175.006V124.883Z" fill="#FAFAFA"/>
<path d="M175.006 128.002H173.147V129.861H175.006V128.002Z" fill="#FAFAFA"/>
<path d="M175.006 131.111H173.147V132.97H175.006V131.111Z" fill="#FAFAFA"/>
<path d="M175.006 134.23H173.147V136.089H175.006V134.23Z" fill="#FAFAFA"/>
<path d="M175.006 137.35H173.147V139.209H175.006V137.35Z" fill="#FAFAFA"/>
<path d="M175.006 140.458H173.147V142.317H175.006V140.458Z" fill="#FAFAFA"/>
<path d="M175.006 149.806H173.147V151.665H175.006V149.806Z" fill="#FAFAFA"/>
<path d="M175.006 152.925H173.147V154.784H175.006V152.925Z" fill="#FAFAFA"/>
<path d="M175.006 156.034H173.147V157.893H175.006V156.034Z" fill="#FAFAFA"/>
<path d="M175.006 159.154H173.147V161.012H175.006V159.154Z" fill="#FAFAFA"/>
<path d="M175.006 162.273H173.147V164.132H175.006V162.273Z" fill="#FAFAFA"/>
<path d="M175.006 174.729H173.147V176.588H175.006V174.729Z" fill="#FAFAFA"/>
<path d="M177.956 112.427H176.097V114.285H177.956V112.427Z" fill="#FAFAFA"/>
<path d="M177.956 115.535H176.097V117.394H177.956V115.535Z" fill="#FAFAFA"/>
<path d="M177.956 118.655H176.097V120.514H177.956V118.655Z" fill="#FAFAFA"/>
<path d="M177.956 121.774H176.097V123.633H177.956V121.774Z" fill="#FAFAFA"/>
<path d="M177.956 124.883H176.097V126.742H177.956V124.883Z" fill="#FAFAFA"/>
<path d="M177.956 128.002H176.097V129.861H177.956V128.002Z" fill="#FAFAFA"/>
<path d="M177.956 131.111H176.097V132.97H177.956V131.111Z" fill="#FAFAFA"/>
<path d="M177.956 134.23H176.097V136.089H177.956V134.23Z" fill="#FAFAFA"/>
<path d="M177.956 137.35H176.097V139.209H177.956V137.35Z" fill="#FAFAFA"/>
<path d="M177.956 140.458H176.097V142.317H177.956V140.458Z" fill="#FAFAFA"/>
<path d="M177.956 143.578H176.097V145.437H177.956V143.578Z" fill="#FAFAFA"/>
<path d="M177.956 146.687H176.097V148.545H177.956V146.687Z" fill="#FAFAFA"/>
<path d="M177.956 149.806H176.097V151.665H177.956V149.806Z" fill="#FAFAFA"/>
<path d="M177.956 152.925H176.097V154.784H177.956V152.925Z" fill="#FAFAFA"/>
<path d="M177.956 156.034H176.097V157.893H177.956V156.034Z" fill="#FAFAFA"/>
<path d="M177.956 159.154H176.097V161.012H177.956V159.154Z" fill="#FAFAFA"/>
<path d="M177.956 162.273H176.097V164.132H177.956V162.273Z" fill="#FAFAFA"/>
<path d="M177.956 165.382H176.097V167.24H177.956V165.382Z" fill="#FAFAFA"/>
<path d="M180.914 112.427H179.056V114.285H180.914V112.427Z" fill="#FAFAFA"/>
<path d="M180.914 115.535H179.056V117.394H180.914V115.535Z" fill="#FAFAFA"/>
<path d="M180.914 118.655H179.056V120.514H180.914V118.655Z" fill="#FAFAFA"/>
<path d="M180.914 121.774H179.056V123.633H180.914V121.774Z" fill="#FAFAFA"/>
<path d="M180.914 124.883H179.056V126.742H180.914V124.883Z" fill="#FAFAFA"/>
<path d="M180.914 128.002H179.056V129.861H180.914V128.002Z" fill="#FAFAFA"/>
<path d="M180.914 131.111H179.056V132.97H180.914V131.111Z" fill="#FAFAFA"/>
<path d="M180.914 134.23H179.056V136.089H180.914V134.23Z" fill="#FAFAFA"/>
<path d="M180.914 137.35H179.056V139.209H180.914V137.35Z" fill="#FAFAFA"/>
<path d="M180.914 140.458H179.056V142.317H180.914V140.458Z" fill="#FAFAFA"/>
<path d="M180.914 149.806H179.056V151.665H180.914V149.806Z" fill="#FAFAFA"/>
<path d="M180.914 152.925H179.056V154.784H180.914V152.925Z" fill="#FAFAFA"/>
<path d="M180.914 156.034H179.056V157.893H180.914V156.034Z" fill="#FAFAFA"/>
<path d="M180.914 159.154H179.056V161.012H180.914V159.154Z" fill="#FAFAFA"/>
<path d="M183.863 112.427H182.004V114.285H183.863V112.427Z" fill="#FAFAFA"/>
<path d="M183.863 115.535H182.004V117.394H183.863V115.535Z" fill="#FAFAFA"/>
<path d="M183.863 118.655H182.004V120.514H183.863V118.655Z" fill="#FAFAFA"/>
<path d="M183.863 121.774H182.004V123.633H183.863V121.774Z" fill="#FAFAFA"/>
<path d="M183.863 124.883H182.004V126.742H183.863V124.883Z" fill="#FAFAFA"/>
<path d="M183.863 128.002H182.004V129.861H183.863V128.002Z" fill="#FAFAFA"/>
<path d="M183.863 131.111H182.004V132.97H183.863V131.111Z" fill="#FAFAFA"/>
<path d="M183.863 134.23H182.004V136.089H183.863V134.23Z" fill="#FAFAFA"/>
<path d="M183.863 137.35H182.004V139.209H183.863V137.35Z" fill="#FAFAFA"/>
<path d="M183.863 140.458H182.004V142.317H183.863V140.458Z" fill="#FAFAFA"/>
<path d="M183.863 149.806H182.004V151.665H183.863V149.806Z" fill="#FAFAFA"/>
<path d="M183.863 152.925H182.004V154.784H183.863V152.925Z" fill="#FAFAFA"/>
<path d="M183.863 156.034H182.004V157.893H183.863V156.034Z" fill="#FAFAFA"/>
<path d="M217.087 104.34H215.228V106.198H217.087V104.34Z" fill="#FAFAFA"/>
<path d="M217.087 107.448H215.228V109.307H217.087V107.448Z" fill="#FAFAFA"/>
<path d="M217.087 110.568H215.228V112.427H217.087V110.568Z" fill="#FAFAFA"/>
<path d="M217.087 113.676H215.228V115.535H217.087V113.676Z" fill="#FAFAFA"/>
<path d="M217.087 116.796H215.228V118.655H217.087V116.796Z" fill="#FAFAFA"/>
<path d="M217.087 119.915H215.228V121.774H217.087V119.915Z" fill="#FAFAFA"/>
<path d="M217.087 123.024H215.228V124.883H217.087V123.024Z" fill="#FAFAFA"/>
<path d="M217.087 126.143H215.228V128.002H217.087V126.143Z" fill="#FAFAFA"/>
<path d="M217.087 135.491H215.228V137.35H217.087V135.491Z" fill="#FAFAFA"/>
<path d="M217.087 138.6H215.228V140.458H217.087V138.6Z" fill="#FAFAFA"/>
<path d="M220.046 104.34H218.188V106.198H220.046V104.34Z" fill="#FAFAFA"/>
<path d="M220.046 107.448H218.188V109.307H220.046V107.448Z" fill="#FAFAFA"/>
<path d="M220.046 110.568H218.188V112.427H220.046V110.568Z" fill="#FAFAFA"/>
<path d="M220.046 113.676H218.188V115.535H220.046V113.676Z" fill="#FAFAFA"/>
<path d="M220.046 116.796H218.188V118.655H220.046V116.796Z" fill="#FAFAFA"/>
<path d="M220.046 119.915H218.188V121.774H220.046V119.915Z" fill="#FAFAFA"/>
<path d="M220.046 123.024H218.188V124.883H220.046V123.024Z" fill="#FAFAFA"/>
<path d="M220.046 126.143H218.188V128.002H220.046V126.143Z" fill="#FAFAFA"/>
<path d="M220.046 138.6H218.188V140.458H220.046V138.6Z" fill="#FAFAFA"/>
<path d="M222.995 104.34H221.136V106.198H222.995V104.34Z" fill="#FAFAFA"/>
<path d="M222.995 107.448H221.136V109.307H222.995V107.448Z" fill="#FAFAFA"/>
<path d="M222.995 110.568H221.136V112.427H222.995V110.568Z" fill="#FAFAFA"/>
<path d="M222.995 113.676H221.136V115.535H222.995V113.676Z" fill="#FAFAFA"/>
<path d="M222.995 116.796H221.136V118.655H222.995V116.796Z" fill="#FAFAFA"/>
<path d="M222.995 119.915H221.136V121.774H222.995V119.915Z" fill="#FAFAFA"/>
<path d="M222.995 123.024H221.136V124.883H222.995V123.024Z" fill="#FAFAFA"/>
<path d="M222.995 126.143H221.136V128.002H222.995V126.143Z" fill="#FAFAFA"/>
<path d="M225.943 104.34H224.084V106.198H225.943V104.34Z" fill="#FAFAFA"/>
<path d="M225.943 107.448H224.084V109.307H225.943V107.448Z" fill="#FAFAFA"/>
<path d="M225.943 110.568H224.084V112.427H225.943V110.568Z" fill="#FAFAFA"/>
<path d="M225.943 113.676H224.084V115.535H225.943V113.676Z" fill="#FAFAFA"/>
<path d="M225.943 116.796H224.084V118.655H225.943V116.796Z" fill="#FAFAFA"/>
<path d="M225.943 119.915H224.084V121.774H225.943V119.915Z" fill="#FAFAFA"/>
<path d="M225.943 126.143H224.084V128.002H225.943V126.143Z" fill="#FAFAFA"/>
<path d="M225.943 129.263H224.084V131.122H225.943V129.263Z" fill="#FAFAFA"/>
<path d="M225.943 138.6H224.084V140.458H225.943V138.6Z" fill="#FAFAFA"/>
<path d="M225.943 141.719H224.084V143.578H225.943V141.719Z" fill="#FAFAFA"/>
<path d="M225.943 144.838H224.084V146.697H225.943V144.838Z" fill="#FAFAFA"/>
<path d="M225.943 147.947H224.084V149.806H225.943V147.947Z" fill="#FAFAFA"/>
<path d="M225.943 151.067H224.084V152.925H225.943V151.067Z" fill="#FAFAFA"/>
<path d="M225.943 154.175H224.084V156.034H225.943V154.175Z" fill="#FAFAFA"/>
<path d="M225.943 157.295H224.084V159.153H225.943V157.295Z" fill="#FAFAFA"/>
<path d="M228.891 104.34H227.032V106.198H228.891V104.34Z" fill="#FAFAFA"/>
<path d="M228.891 107.448H227.032V109.307H228.891V107.448Z" fill="#FAFAFA"/>
<path d="M228.891 110.568H227.032V112.427H228.891V110.568Z" fill="#FAFAFA"/>
<path d="M228.891 113.676H227.032V115.535H228.891V113.676Z" fill="#FAFAFA"/>
<path d="M228.891 116.796H227.032V118.655H228.891V116.796Z" fill="#FAFAFA"/>
<path d="M228.891 119.915H227.032V121.774H228.891V119.915Z" fill="#FAFAFA"/>
<path d="M228.891 129.263H227.032V131.122H228.891V129.263Z" fill="#FAFAFA"/>
<path d="M228.891 132.372H227.032V134.23H228.891V132.372Z" fill="#FAFAFA"/>
<path d="M228.891 135.491H227.032V137.35H228.891V135.491Z" fill="#FAFAFA"/>
<path d="M228.891 138.6H227.032V140.458H228.891V138.6Z" fill="#FAFAFA"/>
<path d="M228.891 141.719H227.032V143.578H228.891V141.719Z" fill="#FAFAFA"/>
<path d="M228.891 144.838H227.032V146.697H228.891V144.838Z" fill="#FAFAFA"/>
<path d="M228.891 147.947H227.032V149.806H228.891V147.947Z" fill="#FAFAFA"/>
<path d="M228.891 151.067H227.032V152.925H228.891V151.067Z" fill="#FAFAFA"/>
<path d="M228.891 154.175H227.032V156.034H228.891V154.175Z" fill="#FAFAFA"/>
<path d="M228.891 157.295H227.032V159.153H228.891V157.295Z" fill="#FAFAFA"/>
<path d="M228.891 160.414H227.032V162.273H228.891V160.414Z" fill="#FAFAFA"/>
<path d="M228.891 166.642H227.032V168.501H228.891V166.642Z" fill="#FAFAFA"/>
<path d="M231.85 104.34H229.991V106.198H231.85V104.34Z" fill="#FAFAFA"/>
<path d="M231.85 107.448H229.991V109.307H231.85V107.448Z" fill="#FAFAFA"/>
<path d="M231.85 110.568H229.991V112.427H231.85V110.568Z" fill="#FAFAFA"/>
<path d="M231.85 113.676H229.991V115.535H231.85V113.676Z" fill="#FAFAFA"/>
<path d="M231.85 116.796H229.991V118.655H231.85V116.796Z" fill="#FAFAFA"/>
<path d="M231.85 119.915H229.991V121.774H231.85V119.915Z" fill="#FAFAFA"/>
<path d="M231.85 129.263H229.991V131.122H231.85V129.263Z" fill="#FAFAFA"/>
<path d="M231.85 132.372H229.991V134.23H231.85V132.372Z" fill="#FAFAFA"/>
<path d="M231.85 135.491H229.991V137.35H231.85V135.491Z" fill="#FAFAFA"/>
<path d="M231.85 138.6H229.991V140.458H231.85V138.6Z" fill="#FAFAFA"/>
<path d="M231.85 147.947H229.991V149.806H231.85V147.947Z" fill="#FAFAFA"/>
<path d="M231.85 151.067H229.991V152.925H231.85V151.067Z" fill="#FAFAFA"/>
<path d="M231.85 154.175H229.991V156.034H231.85V154.175Z" fill="#FAFAFA"/>
<path d="M231.85 157.295H229.991V159.153H231.85V157.295Z" fill="#FAFAFA"/>
<path d="M231.85 160.414H229.991V162.273H231.85V160.414Z" fill="#FAFAFA"/>
<path d="M231.85 166.642H229.991V168.501H231.85V166.642Z" fill="#FAFAFA"/>
<path d="M231.85 169.751H229.991V171.61H231.85V169.751Z" fill="#FAFAFA"/>
<path d="M258.622 133.301H256.763V135.16H258.622V133.301Z" fill="#FAFAFA"/>
<path d="M258.622 136.42H256.763V138.279H258.622V136.42Z" fill="#FAFAFA"/>
<path d="M258.622 139.529H256.763V141.388H258.622V139.529Z" fill="#FAFAFA"/>
<path d="M258.622 142.648H256.763V144.507H258.622V142.648Z" fill="#FAFAFA"/>
<path d="M258.622 145.768H256.763V147.627H258.622V145.768Z" fill="#FAFAFA"/>
<path d="M258.622 148.877H256.763V150.735H258.622V148.877Z" fill="#FAFAFA"/>
<path d="M258.622 151.996H256.763V153.855H258.622V151.996Z" fill="#FAFAFA"/>
<path d="M258.622 161.343H256.763V163.202H258.622V161.343Z" fill="#FAFAFA"/>
<path d="M258.622 164.452H256.763V166.311H258.622V164.452Z" fill="#FAFAFA"/>
<path d="M258.622 167.572H256.763V169.43H258.622V167.572Z" fill="#FAFAFA"/>
<path d="M261.581 133.301H259.722V135.16H261.581V133.301Z" fill="#FAFAFA"/>
<path d="M261.581 136.42H259.722V138.279H261.581V136.42Z" fill="#FAFAFA"/>
<path d="M261.581 139.529H259.722V141.388H261.581V139.529Z" fill="#FAFAFA"/>
<path d="M261.581 142.648H259.722V144.507H261.581V142.648Z" fill="#FAFAFA"/>
<path d="M261.581 145.768H259.722V147.627H261.581V145.768Z" fill="#FAFAFA"/>
<path d="M261.581 148.877H259.722V150.735H261.581V148.877Z" fill="#FAFAFA"/>
<path d="M261.581 151.996H259.722V153.855H261.581V151.996Z" fill="#FAFAFA"/>
<path d="M265.341 133.301H262.67V135.16H265.341V133.301Z" fill="#FAFAFA"/>
<path d="M265.341 136.42H262.67V138.279H265.341V136.42Z" fill="#FAFAFA"/>
<path d="M265.341 139.529H262.67V141.388H265.341V139.529Z" fill="#FAFAFA"/>
<path d="M265.341 142.648H262.67V144.507H265.341V142.648Z" fill="#FAFAFA"/>
<path d="M265.341 145.768H262.67V147.627H265.341V145.768Z" fill="#FAFAFA"/>
<path d="M265.341 148.877H262.67V150.735H265.341V148.877Z" fill="#FAFAFA"/>
<path d="M265.341 151.996H262.67V153.855H265.341V151.996Z" fill="#FAFAFA"/>
<path d="M102.214 137.35H100.355V139.209H102.214V137.35Z" fill="#FAFAFA"/>
<path d="M102.214 140.458H100.355V142.317H102.214V140.458Z" fill="#FAFAFA"/>
<path d="M102.214 143.578H100.355V145.437H102.214V143.578Z" fill="#FAFAFA"/>
<path d="M102.214 146.687H100.355V148.545H102.214V146.687Z" fill="#FAFAFA"/>
<path d="M102.214 149.806H100.355V151.665H102.214V149.806Z" fill="#FAFAFA"/>
<path d="M102.214 152.925H100.355V154.784H102.214V152.925Z" fill="#FAFAFA"/>
<path d="M102.214 156.034H100.355V157.893H102.214V156.034Z" fill="#FAFAFA"/>
<path d="M102.214 159.154H100.355V161.012H102.214V159.154Z" fill="#FAFAFA"/>
<path d="M102.214 162.273H100.355V164.132H102.214V162.273Z" fill="#FAFAFA"/>
<path d="M102.214 165.382H100.355V167.24H102.214V165.382Z" fill="#FAFAFA"/>
<path d="M102.214 168.501H100.355V170.36H102.214V168.501Z" fill="#FAFAFA"/>
<path d="M102.214 171.61H100.355V173.469H102.214V171.61Z" fill="#FAFAFA"/>
<path d="M102.214 174.729H100.355V176.588H102.214V174.729Z" fill="#FAFAFA"/>
<path d="M102.214 177.849H100.355V179.707H102.214V177.849Z" fill="#FAFAFA"/>
<path d="M102.214 180.957H100.355V182.816H102.214V180.957Z" fill="#FAFAFA"/>
<path d="M102.214 184.077H100.355V185.935H102.214V184.077Z" fill="#FAFAFA"/>
<path d="M102.214 187.185H100.355V189.044H102.214V187.185Z" fill="#FAFAFA"/>
<path d="M102.214 190.305H100.355V192.164H102.214V190.305Z" fill="#FAFAFA"/>
<path d="M102.214 193.424H100.355V195.283H102.214V193.424Z" fill="#FAFAFA"/>
<path d="M102.214 196.533H100.355V198.392H102.214V196.533Z" fill="#FAFAFA"/>
<path d="M105.162 137.35H103.303V139.209H105.162V137.35Z" fill="#FAFAFA"/>
<path d="M105.162 140.458H103.303V142.317H105.162V140.458Z" fill="#FAFAFA"/>
<path d="M105.162 143.578H103.303V145.437H105.162V143.578Z" fill="#FAFAFA"/>
<path d="M105.162 146.687H103.303V148.545H105.162V146.687Z" fill="#FAFAFA"/>
<path d="M105.162 149.806H103.303V151.665H105.162V149.806Z" fill="#FAFAFA"/>
<path d="M105.162 152.925H103.303V154.784H105.162V152.925Z" fill="#FAFAFA"/>
<path d="M105.162 156.034H103.303V157.893H105.162V156.034Z" fill="#FAFAFA"/>
<path d="M105.162 159.154H103.303V161.012H105.162V159.154Z" fill="#FAFAFA"/>
<path d="M105.162 162.273H103.303V164.132H105.162V162.273Z" fill="#FAFAFA"/>
<path d="M105.162 165.382H103.303V167.24H105.162V165.382Z" fill="#FAFAFA"/>
<path d="M105.162 168.501H103.303V170.36H105.162V168.501Z" fill="#FAFAFA"/>
<path d="M105.162 171.61H103.303V173.469H105.162V171.61Z" fill="#FAFAFA"/>
<path d="M105.162 174.729H103.303V176.588H105.162V174.729Z" fill="#FAFAFA"/>
<path d="M105.162 177.849H103.303V179.707H105.162V177.849Z" fill="#FAFAFA"/>
<path d="M105.162 180.957H103.303V182.816H105.162V180.957Z" fill="#FAFAFA"/>
<path d="M105.162 184.077H103.303V185.935H105.162V184.077Z" fill="#FAFAFA"/>
<path d="M105.162 187.185H103.303V189.044H105.162V187.185Z" fill="#FAFAFA"/>
<path d="M105.162 190.305H103.303V192.164H105.162V190.305Z" fill="#FAFAFA"/>
<path d="M108.11 137.35H106.251V139.209H108.11V137.35Z" fill="#FAFAFA"/>
<path d="M108.11 140.458H106.251V142.317H108.11V140.458Z" fill="#FAFAFA"/>
<path d="M108.11 143.578H106.251V145.437H108.11V143.578Z" fill="#FAFAFA"/>
<path d="M108.11 146.687H106.251V148.545H108.11V146.687Z" fill="#FAFAFA"/>
<path d="M108.11 149.806H106.251V151.665H108.11V149.806Z" fill="#FAFAFA"/>
<path d="M108.11 152.925H106.251V154.784H108.11V152.925Z" fill="#FAFAFA"/>
<path d="M108.11 156.034H106.251V157.893H108.11V156.034Z" fill="#FAFAFA"/>
<path d="M108.11 159.154H106.251V161.012H108.11V159.154Z" fill="#FAFAFA"/>
<path d="M108.11 162.273H106.251V164.132H108.11V162.273Z" fill="#FAFAFA"/>
<path d="M108.11 165.382H106.251V167.24H108.11V165.382Z" fill="#FAFAFA"/>
<path d="M108.11 168.501H106.251V170.36H108.11V168.501Z" fill="#FAFAFA"/>
<path d="M108.11 171.61H106.251V173.469H108.11V171.61Z" fill="#FAFAFA"/>
<path d="M108.11 174.729H106.251V176.588H108.11V174.729Z" fill="#FAFAFA"/>
<path d="M108.11 177.849H106.251V179.707H108.11V177.849Z" fill="#FAFAFA"/>
<path d="M108.11 180.957H106.251V182.816H108.11V180.957Z" fill="#FAFAFA"/>
<path d="M108.11 184.077H106.251V185.935H108.11V184.077Z" fill="#FAFAFA"/>
<path d="M108.11 187.185H106.251V189.044H108.11V187.185Z" fill="#FAFAFA"/>
<path d="M108.11 190.305H106.251V192.164H108.11V190.305Z" fill="#FAFAFA"/>
<path d="M91.1674 160.083H89.3086V161.942H91.1674V160.083Z" fill="#FAFAFA"/>
<path d="M91.1674 163.202H89.3086V165.061H91.1674V163.202Z" fill="#FAFAFA"/>
<path d="M91.1674 166.311H89.3086V168.17H91.1674V166.311Z" fill="#FAFAFA"/>
<path d="M91.1674 169.43H89.3086V171.289H91.1674V169.43Z" fill="#FAFAFA"/>
<path d="M91.1674 172.539H89.3086V174.398H91.1674V172.539Z" fill="#FAFAFA"/>
<path d="M91.1674 175.659H89.3086V177.517H91.1674V175.659Z" fill="#FAFAFA"/>
<path d="M91.1674 178.778H89.3086V180.637H91.1674V178.778Z" fill="#FAFAFA"/>
<path d="M91.1674 181.887H89.3086V183.745H91.1674V181.887Z" fill="#FAFAFA"/>
<path d="M91.1674 185.006H89.3086V186.865H91.1674V185.006Z" fill="#FAFAFA"/>
<path d="M91.1674 188.115H89.3086V189.974H91.1674V188.115Z" fill="#FAFAFA"/>
<path d="M91.1674 191.234H89.3086V193.093H91.1674V191.234Z" fill="#FAFAFA"/>
<path d="M91.1674 194.354H89.3086V196.212H91.1674V194.354Z" fill="#FAFAFA"/>
<path d="M91.1674 197.462H89.3086V199.321H91.1674V197.462Z" fill="#FAFAFA"/>
<path d="M94.1161 160.083H92.2573V161.942H94.1161V160.083Z" fill="#FAFAFA"/>
<path d="M94.1161 163.202H92.2573V165.061H94.1161V163.202Z" fill="#FAFAFA"/>
<path d="M94.1161 166.311H92.2573V168.17H94.1161V166.311Z" fill="#FAFAFA"/>
<path d="M94.1161 169.43H92.2573V171.289H94.1161V169.43Z" fill="#FAFAFA"/>
<path d="M94.1161 172.539H92.2573V174.398H94.1161V172.539Z" fill="#FAFAFA"/>
<path d="M94.1161 175.659H92.2573V177.517H94.1161V175.659Z" fill="#FAFAFA"/>
<path d="M94.1161 178.778H92.2573V180.637H94.1161V178.778Z" fill="#FAFAFA"/>
<path d="M94.1161 181.887H92.2573V183.745H94.1161V181.887Z" fill="#FAFAFA"/>
<path d="M94.1161 185.006H92.2573V186.865H94.1161V185.006Z" fill="#FAFAFA"/>
<path d="M94.1161 188.115H92.2573V189.974H94.1161V188.115Z" fill="#FAFAFA"/>
<path d="M94.1161 191.234H92.2573V193.093H94.1161V191.234Z" fill="#FAFAFA"/>
<path d="M94.1161 194.354H92.2573V196.212H94.1161V194.354Z" fill="#FAFAFA"/>
<path d="M94.1161 197.462H92.2573V199.321H94.1161V197.462Z" fill="#FAFAFA"/>
<path d="M97.0756 160.083H95.2168V161.942H97.0756V160.083Z" fill="#FAFAFA"/>
<path d="M97.0756 163.202H95.2168V165.061H97.0756V163.202Z" fill="#FAFAFA"/>
<path d="M97.0756 166.311H95.2168V168.17H97.0756V166.311Z" fill="#FAFAFA"/>
<path d="M97.0756 169.43H95.2168V171.289H97.0756V169.43Z" fill="#FAFAFA"/>
<path d="M97.0756 172.539H95.2168V174.398H97.0756V172.539Z" fill="#FAFAFA"/>
<path d="M97.0756 175.659H95.2168V177.517H97.0756V175.659Z" fill="#FAFAFA"/>
<path d="M97.0756 178.778H95.2168V180.637H97.0756V178.778Z" fill="#FAFAFA"/>
<path d="M97.0756 181.887H95.2168V183.745H97.0756V181.887Z" fill="#FAFAFA"/>
<path d="M97.0756 185.006H95.2168V186.865H97.0756V185.006Z" fill="#FAFAFA"/>
<path d="M97.0756 188.115H95.2168V189.974H97.0756V188.115Z" fill="#FAFAFA"/>
<path d="M97.0756 191.234H95.2168V193.093H97.0756V191.234Z" fill="#FAFAFA"/>
<path d="M97.0756 194.354H95.2168V196.212H97.0756V194.354Z" fill="#FAFAFA"/>
<path d="M97.0756 197.462H95.2168V199.321H97.0756V197.462Z" fill="#FAFAFA"/>
<path d="M97.0756 200.582H95.2168V202.441H97.0756V200.582Z" fill="#FAFAFA"/>
<path d="M113.473 161.012H111.614V162.871H113.473V161.012Z" fill="#FAFAFA"/>
<path d="M113.473 164.121H111.614V165.98H113.473V164.121Z" fill="#FAFAFA"/>
<path d="M113.473 167.24H111.614V169.099H113.473V167.24Z" fill="#FAFAFA"/>
<path d="M113.473 170.36H111.614V172.219H113.473V170.36Z" fill="#FAFAFA"/>
<path d="M113.473 173.469H111.614V175.327H113.473V173.469Z" fill="#FAFAFA"/>
<path d="M113.473 176.588H111.614V178.447H113.473V176.588Z" fill="#FAFAFA"/>
<path d="M113.473 179.707H111.614V181.566H113.473V179.707Z" fill="#FAFAFA"/>
<path d="M113.473 182.816H111.614V184.675H113.473V182.816Z" fill="#FAFAFA"/>
<path d="M113.473 185.935H111.614V187.794H113.473V185.935Z" fill="#FAFAFA"/>
<path d="M113.473 189.044H111.614V190.903H113.473V189.044Z" fill="#FAFAFA"/>
<path d="M113.473 198.392H111.614V200.251H113.473V198.392Z" fill="#FAFAFA"/>
<path d="M116.422 161.012H114.563V162.871H116.422V161.012Z" fill="#FAFAFA"/>
<path d="M116.422 164.121H114.563V165.98H116.422V164.121Z" fill="#FAFAFA"/>
<path d="M116.422 167.24H114.563V169.099H116.422V167.24Z" fill="#FAFAFA"/>
<path d="M116.422 170.36H114.563V172.219H116.422V170.36Z" fill="#FAFAFA"/>
<path d="M116.422 173.469H114.563V175.327H116.422V173.469Z" fill="#FAFAFA"/>
<path d="M116.422 176.588H114.563V178.447H116.422V176.588Z" fill="#FAFAFA"/>
<path d="M116.422 179.707H114.563V181.566H116.422V179.707Z" fill="#FAFAFA"/>
<path d="M116.422 182.816H114.563V184.675H116.422V182.816Z" fill="#FAFAFA"/>
<path d="M116.422 185.935H114.563V187.794H116.422V185.935Z" fill="#FAFAFA"/>
<path d="M116.422 195.283H114.563V197.142H116.422V195.283Z" fill="#FAFAFA"/>
<path d="M116.422 198.392H114.563V200.251H116.422V198.392Z" fill="#FAFAFA"/>
<path d="M119.371 161.012H117.512V162.871H119.371V161.012Z" fill="#FAFAFA"/>
<path d="M119.371 164.121H117.512V165.98H119.371V164.121Z" fill="#FAFAFA"/>
<path d="M119.371 167.24H117.512V169.099H119.371V167.24Z" fill="#FAFAFA"/>
<path d="M119.371 170.36H117.512V172.219H119.371V170.36Z" fill="#FAFAFA"/>
<path d="M119.371 173.469H117.512V175.327H119.371V173.469Z" fill="#FAFAFA"/>
<path d="M119.371 176.588H117.512V178.447H119.371V176.588Z" fill="#FAFAFA"/>
<path d="M119.371 179.707H117.512V181.566H119.371V179.707Z" fill="#FAFAFA"/>
<path d="M119.371 182.816H117.512V184.675H119.371V182.816Z" fill="#FAFAFA"/>
<path d="M119.371 192.164H117.512V194.022H119.371V192.164Z" fill="#FAFAFA"/>
<path d="M119.371 195.283H117.512V197.142H119.371V195.283Z" fill="#FAFAFA"/>
<path d="M119.371 198.392H117.512V200.251H119.371V198.392Z" fill="#FAFAFA"/>
<path d="M146.804 113.676H144.945V115.535H146.804V113.676Z" fill="#FAFAFA"/>
<path d="M146.804 116.796H144.945V118.655H146.804V116.796Z" fill="#FAFAFA"/>
<path d="M146.804 119.915H144.945V121.774H146.804V119.915Z" fill="#FAFAFA"/>
<path d="M146.804 123.024H144.945V124.883H146.804V123.024Z" fill="#FAFAFA"/>
<path d="M146.804 126.143H144.945V128.002H146.804V126.143Z" fill="#FAFAFA"/>
<path d="M146.804 129.263H144.945V131.122H146.804V129.263Z" fill="#FAFAFA"/>
<path d="M146.804 132.372H144.945V134.23H146.804V132.372Z" fill="#FAFAFA"/>
<path d="M146.804 135.491H144.945V137.35H146.804V135.491Z" fill="#FAFAFA"/>
<path d="M146.804 138.6H144.945V140.458H146.804V138.6Z" fill="#FAFAFA"/>
<path d="M146.804 141.719H144.945V143.578H146.804V141.719Z" fill="#FAFAFA"/>
<path d="M146.804 144.838H144.945V146.697H146.804V144.838Z" fill="#FAFAFA"/>
<path d="M146.804 147.947H144.945V149.806H146.804V147.947Z" fill="#FAFAFA"/>
<path d="M146.804 151.067H144.945V152.925H146.804V151.067Z" fill="#FAFAFA"/>
<path d="M146.804 154.175H144.945V156.034H146.804V154.175Z" fill="#FAFAFA"/>
<path d="M146.804 157.295H144.945V159.153H146.804V157.295Z" fill="#FAFAFA"/>
<path d="M146.804 160.414H144.945V162.273H146.804V160.414Z" fill="#FAFAFA"/>
<path d="M146.804 163.523H144.945V165.382H146.804V163.523Z" fill="#FAFAFA"/>
<path d="M146.804 169.751H144.945V171.61H146.804V169.751Z" fill="#FAFAFA"/>
<path d="M146.804 172.87H144.945V174.729H146.804V172.87Z" fill="#FAFAFA"/>
<path d="M146.804 175.99H144.945V177.849H146.804V175.99Z" fill="#FAFAFA"/>
<path d="M146.804 179.098H144.945V180.957H146.804V179.098Z" fill="#FAFAFA"/>
<path d="M146.804 182.218H144.945V184.077H146.804V182.218Z" fill="#FAFAFA"/>
<path d="M149.753 113.676H147.894V115.535H149.753V113.676Z" fill="#FAFAFA"/>
<path d="M149.753 116.796H147.894V118.655H149.753V116.796Z" fill="#FAFAFA"/>
<path d="M149.753 119.915H147.894V121.774H149.753V119.915Z" fill="#FAFAFA"/>
<path d="M149.753 123.024H147.894V124.883H149.753V123.024Z" fill="#FAFAFA"/>
<path d="M149.753 126.143H147.894V128.002H149.753V126.143Z" fill="#FAFAFA"/>
<path d="M149.753 129.263H147.894V131.122H149.753V129.263Z" fill="#FAFAFA"/>
<path d="M149.753 132.372H147.894V134.23H149.753V132.372Z" fill="#FAFAFA"/>
<path d="M149.753 135.491H147.894V137.35H149.753V135.491Z" fill="#FAFAFA"/>
<path d="M149.753 138.6H147.894V140.458H149.753V138.6Z" fill="#FAFAFA"/>
<path d="M149.753 141.719H147.894V143.578H149.753V141.719Z" fill="#FAFAFA"/>
<path d="M149.753 144.838H147.894V146.697H149.753V144.838Z" fill="#FAFAFA"/>
<path d="M149.753 147.947H147.894V149.806H149.753V147.947Z" fill="#FAFAFA"/>
<path d="M149.753 151.067H147.894V152.925H149.753V151.067Z" fill="#FAFAFA"/>
<path d="M149.753 154.175H147.894V156.034H149.753V154.175Z" fill="#FAFAFA"/>
<path d="M149.753 157.295H147.894V159.153H149.753V157.295Z" fill="#FAFAFA"/>
<path d="M149.753 160.414H147.894V162.273H149.753V160.414Z" fill="#FAFAFA"/>
<path d="M149.753 179.098H147.894V180.957H149.753V179.098Z" fill="#FAFAFA"/>
<path d="M149.753 182.218H147.894V184.077H149.753V182.218Z" fill="#FAFAFA"/>
<path d="M152.712 113.676H150.853V115.535H152.712V113.676Z" fill="#FAFAFA"/>
<path d="M152.712 116.796H150.853V118.655H152.712V116.796Z" fill="#FAFAFA"/>
<path d="M152.712 119.915H150.853V121.774H152.712V119.915Z" fill="#FAFAFA"/>
<path d="M152.712 123.024H150.853V124.883H152.712V123.024Z" fill="#FAFAFA"/>
<path d="M152.712 126.143H150.853V128.002H152.712V126.143Z" fill="#FAFAFA"/>
<path d="M152.712 129.263H150.853V131.122H152.712V129.263Z" fill="#FAFAFA"/>
<path d="M152.712 132.372H150.853V134.23H152.712V132.372Z" fill="#FAFAFA"/>
<path d="M152.712 135.491H150.853V137.35H152.712V135.491Z" fill="#FAFAFA"/>
<path d="M152.712 138.6H150.853V140.458H152.712V138.6Z" fill="#FAFAFA"/>
<path d="M152.712 141.719H150.853V143.578H152.712V141.719Z" fill="#FAFAFA"/>
<path d="M152.712 144.838H150.853V146.697H152.712V144.838Z" fill="#FAFAFA"/>
<path d="M152.712 147.947H150.853V149.806H152.712V147.947Z" fill="#FAFAFA"/>
<path d="M152.712 151.067H150.853V152.925H152.712V151.067Z" fill="#FAFAFA"/>
<path d="M152.712 154.175H150.853V156.034H152.712V154.175Z" fill="#FAFAFA"/>
<path d="M152.712 157.295H150.853V159.153H152.712V157.295Z" fill="#FAFAFA"/>
<path d="M152.712 160.414H150.853V162.273H152.712V160.414Z" fill="#FAFAFA"/>
<path d="M152.712 166.642H150.853V168.501H152.712V166.642Z" fill="#FAFAFA"/>
<path d="M152.712 169.751H150.853V171.61H152.712V169.751Z" fill="#FAFAFA"/>
<path d="M152.712 172.87H150.853V174.729H152.712V172.87Z" fill="#FAFAFA"/>
<path d="M152.712 175.99H150.853V177.849H152.712V175.99Z" fill="#FAFAFA"/>
<path d="M152.712 182.218H150.853V184.077H152.712V182.218Z" fill="#FAFAFA"/>
<path d="M136.089 152.925H134.23V154.784H136.089V152.925Z" fill="#FAFAFA"/>
<path d="M136.089 156.034H134.23V157.893H136.089V156.034Z" fill="#FAFAFA"/>
<path d="M136.089 159.154H134.23V161.012H136.089V159.154Z" fill="#FAFAFA"/>
<path d="M136.089 162.273H134.23V164.132H136.089V162.273Z" fill="#FAFAFA"/>
<path d="M136.089 165.382H134.23V167.24H136.089V165.382Z" fill="#FAFAFA"/>
<path d="M136.089 168.501H134.23V170.36H136.089V168.501Z" fill="#FAFAFA"/>
<path d="M136.089 171.61H134.23V173.469H136.089V171.61Z" fill="#FAFAFA"/>
<path d="M136.089 177.849H134.23V179.707H136.089V177.849Z" fill="#FAFAFA"/>
<path d="M136.089 180.957H134.23V182.816H136.089V180.957Z" fill="#FAFAFA"/>
<path d="M136.089 184.077H134.23V185.935H136.089V184.077Z" fill="#FAFAFA"/>
<path d="M136.089 187.185H134.23V189.044H136.089V187.185Z" fill="#FAFAFA"/>
<path d="M136.089 190.305H134.23V192.164H136.089V190.305Z" fill="#FAFAFA"/>
<path d="M136.089 193.424H134.23V195.283H136.089V193.424Z" fill="#FAFAFA"/>
<path d="M136.089 196.533H134.23V198.392H136.089V196.533Z" fill="#FAFAFA"/>
<path d="M136.089 199.652H134.23V201.511H136.089V199.652Z" fill="#FAFAFA"/>
<path d="M139.048 152.925H137.189V154.784H139.048V152.925Z" fill="#FAFAFA"/>
<path d="M139.048 156.034H137.189V157.893H139.048V156.034Z" fill="#FAFAFA"/>
<path d="M139.048 159.154H137.189V161.012H139.048V159.154Z" fill="#FAFAFA"/>
<path d="M139.048 162.273H137.189V164.132H139.048V162.273Z" fill="#FAFAFA"/>
<path d="M139.048 165.382H137.189V167.24H139.048V165.382Z" fill="#FAFAFA"/>
<path d="M139.048 168.501H137.189V170.36H139.048V168.501Z" fill="#FAFAFA"/>
<path d="M139.048 177.849H137.189V179.707H139.048V177.849Z" fill="#FAFAFA"/>
<path d="M139.048 180.957H137.189V182.816H139.048V180.957Z" fill="#FAFAFA"/>
<path d="M139.048 184.077H137.189V185.935H139.048V184.077Z" fill="#FAFAFA"/>
<path d="M139.048 187.185H137.189V189.044H139.048V187.185Z" fill="#FAFAFA"/>
<path d="M139.048 190.305H137.189V192.164H139.048V190.305Z" fill="#FAFAFA"/>
<path d="M139.048 193.424H137.189V195.283H139.048V193.424Z" fill="#FAFAFA"/>
<path d="M139.048 196.533H137.189V198.392H139.048V196.533Z" fill="#FAFAFA"/>
<path d="M139.048 199.652H137.189V201.511H139.048V199.652Z" fill="#FAFAFA"/>
<path d="M141.997 152.925H140.138V154.784H141.997V152.925Z" fill="#FAFAFA"/>
<path d="M141.997 156.034H140.138V157.893H141.997V156.034Z" fill="#FAFAFA"/>
<path d="M141.997 159.154H140.138V161.012H141.997V159.154Z" fill="#FAFAFA"/>
<path d="M141.997 162.273H140.138V164.132H141.997V162.273Z" fill="#FAFAFA"/>
<path d="M141.997 165.382H140.138V167.24H141.997V165.382Z" fill="#FAFAFA"/>
<path d="M141.997 168.501H140.138V170.36H141.997V168.501Z" fill="#FAFAFA"/>
<path d="M141.997 174.729H140.138V176.588H141.997V174.729Z" fill="#FAFAFA"/>
<path d="M141.997 177.849H140.138V179.707H141.997V177.849Z" fill="#FAFAFA"/>
<path d="M141.997 180.957H140.138V182.816H141.997V180.957Z" fill="#FAFAFA"/>
<path d="M141.997 184.077H140.138V185.935H141.997V184.077Z" fill="#FAFAFA"/>
<path d="M141.997 187.185H140.138V189.044H141.997V187.185Z" fill="#FAFAFA"/>
<path d="M141.997 190.305H140.138V192.164H141.997V190.305Z" fill="#FAFAFA"/>
<path d="M141.997 193.424H140.138V195.283H141.997V193.424Z" fill="#FAFAFA"/>
<path d="M141.997 196.533H140.138V198.392H141.997V196.533Z" fill="#FAFAFA"/>
<path d="M141.997 199.652H140.138V201.511H141.997V199.652Z" fill="#FAFAFA"/>
<path d="M204.192 135.491H202.333V137.35H204.192V135.491Z" fill="#FAFAFA"/>
<path d="M204.192 138.6H202.333V140.458H204.192V138.6Z" fill="#FAFAFA"/>
<path d="M204.192 141.719H202.333V143.578H204.192V141.719Z" fill="#FAFAFA"/>
<path d="M204.192 144.838H202.333V146.697H204.192V144.838Z" fill="#FAFAFA"/>
<path d="M204.192 147.947H202.333V149.806H204.192V147.947Z" fill="#FAFAFA"/>
<path d="M204.192 151.067H202.333V152.925H204.192V151.067Z" fill="#FAFAFA"/>
<path d="M204.192 154.175H202.333V156.034H204.192V154.175Z" fill="#FAFAFA"/>
<path d="M204.192 157.295H202.333V159.153H204.192V157.295Z" fill="#FAFAFA"/>
<path d="M204.192 160.414H202.333V162.273H204.192V160.414Z" fill="#FAFAFA"/>
<path d="M204.192 163.523H202.333V165.382H204.192V163.523Z" fill="#FAFAFA"/>
<path d="M204.192 166.642H202.333V168.501H204.192V166.642Z" fill="#FAFAFA"/>
<path d="M204.192 169.751H202.333V171.61H204.192V169.751Z" fill="#FAFAFA"/>
<path d="M204.192 172.87H202.333V174.729H204.192V172.87Z" fill="#FAFAFA"/>
<path d="M204.192 179.098H202.333V180.957H204.192V179.098Z" fill="#FAFAFA"/>
<path d="M204.192 182.218H202.333V184.077H204.192V182.218Z" fill="#FAFAFA"/>
<path d="M204.192 185.327H202.333V187.185H204.192V185.327Z" fill="#FAFAFA"/>
<path d="M204.192 188.446H202.333V190.305H204.192V188.446Z" fill="#FAFAFA"/>
<path d="M204.192 194.674H202.333V196.533H204.192V194.674Z" fill="#FAFAFA"/>
<path d="M204.192 197.793H202.333V199.652H204.192V197.793Z" fill="#FAFAFA"/>
<path d="M204.192 200.902H202.333V202.761H204.192V200.902Z" fill="#FAFAFA"/>
<path d="M207.141 135.491H205.282V137.35H207.141V135.491Z" fill="#FAFAFA"/>
<path d="M207.141 138.6H205.282V140.458H207.141V138.6Z" fill="#FAFAFA"/>
<path d="M207.141 141.719H205.282V143.578H207.141V141.719Z" fill="#FAFAFA"/>
<path d="M207.141 144.838H205.282V146.697H207.141V144.838Z" fill="#FAFAFA"/>
<path d="M207.141 147.947H205.282V149.806H207.141V147.947Z" fill="#FAFAFA"/>
<path d="M207.141 151.067H205.282V152.925H207.141V151.067Z" fill="#FAFAFA"/>
<path d="M207.141 154.175H205.282V156.034H207.141V154.175Z" fill="#FAFAFA"/>
<path d="M207.141 157.295H205.282V159.153H207.141V157.295Z" fill="#FAFAFA"/>
<path d="M207.141 160.414H205.282V162.273H207.141V160.414Z" fill="#FAFAFA"/>
<path d="M207.141 163.523H205.282V165.382H207.141V163.523Z" fill="#FAFAFA"/>
<path d="M207.141 166.642H205.282V168.501H207.141V166.642Z" fill="#FAFAFA"/>
<path d="M207.141 169.751H205.282V171.61H207.141V169.751Z" fill="#FAFAFA"/>
<path d="M207.141 172.87H205.282V174.729H207.141V172.87Z" fill="#FAFAFA"/>
<path d="M207.141 182.218H205.282V184.077H207.141V182.218Z" fill="#FAFAFA"/>
<path d="M207.141 185.327H205.282V187.185H207.141V185.327Z" fill="#FAFAFA"/>
<path d="M207.141 191.565H205.282V193.424H207.141V191.565Z" fill="#FAFAFA"/>
<path d="M207.141 194.674H205.282V196.533H207.141V194.674Z" fill="#FAFAFA"/>
<path d="M207.141 197.793H205.282V199.652H207.141V197.793Z" fill="#FAFAFA"/>
<path d="M207.141 200.902H205.282V202.761H207.141V200.902Z" fill="#FAFAFA"/>
<path d="M210.089 135.491H208.23V137.35H210.089V135.491Z" fill="#FAFAFA"/>
<path d="M210.089 138.6H208.23V140.458H210.089V138.6Z" fill="#FAFAFA"/>
<path d="M210.089 141.719H208.23V143.578H210.089V141.719Z" fill="#FAFAFA"/>
<path d="M210.089 144.838H208.23V146.697H210.089V144.838Z" fill="#FAFAFA"/>
<path d="M210.089 147.947H208.23V149.806H210.089V147.947Z" fill="#FAFAFA"/>
<path d="M210.089 151.067H208.23V152.925H210.089V151.067Z" fill="#FAFAFA"/>
<path d="M210.089 154.175H208.23V156.034H210.089V154.175Z" fill="#FAFAFA"/>
<path d="M210.089 157.295H208.23V159.153H210.089V157.295Z" fill="#FAFAFA"/>
<path d="M210.089 160.414H208.23V162.273H210.089V160.414Z" fill="#FAFAFA"/>
<path d="M210.089 163.523H208.23V165.382H210.089V163.523Z" fill="#FAFAFA"/>
<path d="M210.089 166.642H208.23V168.501H210.089V166.642Z" fill="#FAFAFA"/>
<path d="M210.089 169.751H208.23V171.61H210.089V169.751Z" fill="#FAFAFA"/>
<path d="M210.089 172.87H208.23V174.729H210.089V172.87Z" fill="#FAFAFA"/>
<path d="M210.089 175.99H208.23V177.849H210.089V175.99Z" fill="#FAFAFA"/>
<path d="M210.089 182.218H208.23V184.077H210.089V182.218Z" fill="#FAFAFA"/>
<path d="M210.089 188.446H208.23V190.305H210.089V188.446Z" fill="#FAFAFA"/>
<path d="M210.089 191.565H208.23V193.424H210.089V191.565Z" fill="#FAFAFA"/>
<path d="M210.089 194.674H208.23V196.533H210.089V194.674Z" fill="#FAFAFA"/>
<path d="M210.089 197.793H208.23V199.652H210.089V197.793Z" fill="#FAFAFA"/>
<path d="M210.089 200.902H208.23V202.761H210.089V200.902Z" fill="#FAFAFA"/>
<path d="M192.164 153.246H190.305V155.105H192.164V153.246Z" fill="#FAFAFA"/>
<path d="M192.164 156.365H190.305V158.224H192.164V156.365Z" fill="#FAFAFA"/>
<path d="M192.164 159.485H190.305V161.343H192.164V159.485Z" fill="#FAFAFA"/>
<path d="M192.164 162.593H190.305V164.452H192.164V162.593Z" fill="#FAFAFA"/>
<path d="M192.164 165.713H190.305V167.572H192.164V165.713Z" fill="#FAFAFA"/>
<path d="M192.164 168.821H190.305V170.68H192.164V168.821Z" fill="#FAFAFA"/>
<path d="M192.164 178.169H190.305V180.028H192.164V178.169Z" fill="#FAFAFA"/>
<path d="M192.164 181.288H190.305V183.147H192.164V181.288Z" fill="#FAFAFA"/>
<path d="M192.164 184.397H190.305V186.256H192.164V184.397Z" fill="#FAFAFA"/>
<path d="M192.164 187.517H190.305V189.375H192.164V187.517Z" fill="#FAFAFA"/>
<path d="M192.164 190.636H190.305V192.495H192.164V190.636Z" fill="#FAFAFA"/>
<path d="M192.164 193.745H190.305V195.603H192.164V193.745Z" fill="#FAFAFA"/>
<path d="M192.164 196.864H190.305V198.723H192.164V196.864Z" fill="#FAFAFA"/>
<path d="M195.122 153.246H193.264V155.105H195.122V153.246Z" fill="#FAFAFA"/>
<path d="M195.122 156.365H193.264V158.224H195.122V156.365Z" fill="#FAFAFA"/>
<path d="M195.122 159.485H193.264V161.343H195.122V159.485Z" fill="#FAFAFA"/>
<path d="M195.122 162.593H193.264V164.452H195.122V162.593Z" fill="#FAFAFA"/>
<path d="M195.122 165.713H193.264V167.572H195.122V165.713Z" fill="#FAFAFA"/>
<path d="M195.122 168.821H193.264V170.68H195.122V168.821Z" fill="#FAFAFA"/>
<path d="M195.122 178.169H193.264V180.028H195.122V178.169Z" fill="#FAFAFA"/>
<path d="M195.122 181.288H193.264V183.147H195.122V181.288Z" fill="#FAFAFA"/>
<path d="M195.122 184.397H193.264V186.256H195.122V184.397Z" fill="#FAFAFA"/>
<path d="M195.122 187.517H193.264V189.375H195.122V187.517Z" fill="#FAFAFA"/>
<path d="M195.122 190.636H193.264V192.495H195.122V190.636Z" fill="#FAFAFA"/>
<path d="M195.122 193.745H193.264V195.603H195.122V193.745Z" fill="#FAFAFA"/>
<path d="M195.122 199.983H193.264V201.842H195.122V199.983Z" fill="#FAFAFA"/>
<path d="M265.843 51.3846H262.158V253.814H265.843V51.3846Z" fill="#EBEBEB"/>
<path d="M206.607 51.3846H203.488V253.814H206.607V51.3846Z" fill="#EBEBEB"/>
<path d="M147.936 51.3846H144.816V253.814H147.936V51.3846Z" fill="#EBEBEB"/>
<path d="M368.452 59.3968C376.812 59.3968 383.59 52.6194 383.59 44.2592C383.59 35.8989 376.812 29.1215 368.452 29.1215C360.092 29.1215 353.314 35.8989 353.314 44.2592C353.314 52.6194 360.092 59.3968 368.452 59.3968Z" fill="#E0E0E0"/>
<path d="M381.315 44.2592C381.315 46.7946 380.563 49.2731 379.154 51.3813C377.746 53.4894 375.743 55.1325 373.401 56.1028C371.059 57.0731 368.481 57.3269 365.994 56.8323C363.508 56.3377 361.223 55.1167 359.431 53.3239C357.638 51.531 356.417 49.2468 355.922 46.7601C355.427 44.2734 355.681 41.6958 356.652 39.3534C357.622 37.0109 359.265 35.0088 361.373 33.6002C363.481 32.1916 365.96 31.4397 368.495 31.4397C371.895 31.4397 375.156 32.7903 377.56 35.1944C379.964 37.5985 381.315 40.8592 381.315 44.2592Z" fill="#F0F0F0"/>
<path d="M367.843 35.4351V44.4301L361.882 41.0543" fill="#F0F0F0"/>
<path d="M367.844 45.4984C367.66 45.4978 367.48 45.45 367.32 45.3595L361.359 41.9837C361.113 41.842 360.932 41.6083 360.858 41.3338C360.784 41.0593 360.822 40.7666 360.964 40.5201C361.106 40.2737 361.339 40.0935 361.614 40.0194C361.888 39.9453 362.181 39.9832 362.427 40.1249L366.797 42.6033V35.4351C366.797 35.1518 366.909 34.88 367.11 34.6797C367.31 34.4794 367.582 34.3668 367.865 34.3668C368.148 34.3668 368.42 34.4794 368.62 34.6797C368.821 34.88 368.933 35.1518 368.933 35.4351V44.4301C368.934 44.6183 368.885 44.8034 368.791 44.9666C368.697 45.1298 368.562 45.2654 368.399 45.3595C368.23 45.4555 368.038 45.5035 367.844 45.4984Z" fill="#E0E0E0"/>
<path d="M444.002 68.6909H377.084V157.017H444.002V68.6909Z" fill="#F5F5F5"/>
<path d="M399.85 78.0918V116.924L415.318 116.048L417.092 78.0918H399.85Z" fill="#EBEBEB"/>
<path d="M412.37 85.6019H436.171L435.968 119.595L423.64 119.787L412.37 85.6019Z" fill="#E0E0E0"/>
<path d="M389.198 80.5916H395.459L393.269 110.92L385.438 112.865L389.198 80.5916Z" fill="#E6E6E6"/>
<path d="M300.573 167.796H367.277V86.6275L300.573 86.6275V167.796Z" fill="#E6E6E6"/>
<path d="M315.84 147.691L350.89 113.238L312.966 106.978L315.84 147.691Z" fill="#E0E0E0"/>
<path d="M350.045 139.518L351.776 113.1L325.389 119.584L323.466 139.796L350.045 139.518Z" fill="#F0F0F0"/>
<path d="M323.045 109.871C327.205 105.711 327.205 98.9677 323.045 94.8083C318.886 90.6488 312.142 90.6488 307.983 94.8083C303.824 98.9677 303.824 105.711 307.983 109.871C312.142 114.03 318.886 114.03 323.045 109.871Z" fill="#FAFAFA"/>
<path d="M346.595 148.941C346.595 147.918 346.898 146.918 347.467 146.068C348.035 145.218 348.842 144.555 349.787 144.164C350.732 143.772 351.771 143.67 352.774 143.869C353.777 144.069 354.699 144.561 355.422 145.285C356.145 146.008 356.637 146.929 356.837 147.932C357.036 148.935 356.934 149.975 356.543 150.919C356.151 151.864 355.489 152.672 354.638 153.24C353.788 153.808 352.788 154.111 351.766 154.111C350.394 154.111 349.079 153.566 348.11 152.597C347.14 151.627 346.595 150.312 346.595 148.941Z" fill="#E0E0E0"/>
<path d="M350.537 158.021L335.613 148.941L348.155 138.61L350.537 158.021Z" fill="#F5F5F5"/>
<path d="M332.921 96.9471H329.983V161.76H332.921V96.9471Z" fill="#E0E0E0"/>
<path d="M361.017 96.9471H357.225V158.897H361.017V96.9471Z" fill="#EBEBEB"/>
<path d="M326.661 139.796H307.271V159.186H326.661V139.796Z" fill="#EBEBEB"/>
<path d="M439.483 276.024H369.382V339.726H439.483V276.024Z" fill="#E6E6E6"/>
<path d="M450.198 270.416H441.384V349.522H450.198V270.416Z" fill="#E6E6E6"/>
<path d="M386.293 281.964H380.545V304.815H386.293V281.964Z" fill="#FAFAFA"/>
<path d="M410.105 281.964H404.357V304.815H410.105V281.964Z" fill="#F5F5F5"/>
<path d="M392.03 283.951H386.282V304.825H392.03V283.951Z" fill="#F5F5F5"/>
<path d="M404.357 283.951H398.61V304.825H404.357V283.951Z" fill="#FAFAFA"/>
<path d="M398.61 281.964H394.903V304.815H398.61V281.964Z" fill="#EBEBEB"/>
<path d="M394.903 283.951H392.029V304.825H394.903V283.951Z" fill="#FAFAFA"/>
<path d="M415.853 281.964H410.105V304.815H415.853V281.964Z" fill="#EBEBEB"/>
<path d="M421.6 283.951H415.853V304.825H421.6V283.951Z" fill="#E6E6E6"/>
<path d="M433.927 283.951H428.18V304.825H433.927V283.951Z" fill="#E6E6E6"/>
<path d="M428.17 281.964H424.463V304.815H428.17V281.964Z" fill="#FAFAFA"/>
<path d="M424.463 283.951H421.589V304.825H424.463V283.951Z" fill="#EBEBEB"/>
<path d="M436.791 282.637H433.917V304.825H436.791V282.637Z" fill="#FAFAFA"/>
<path d="M431.054 336.19H436.802V314.408H431.054V336.19Z" fill="#FAFAFA"/>
<path d="M407.231 336.19H412.979V314.408H407.231V336.19Z" fill="#FAFAFA"/>
<path d="M425.297 336.201H431.044V316.395H425.297V336.201Z" fill="#F0F0F0"/>
<path d="M412.968 336.201H418.715V316.395H412.968V336.201Z" fill="#EBEBEB"/>
<path d="M418.726 336.19H422.433V314.408H418.726V336.19Z" fill="#FAFAFA"/>
<path d="M422.433 336.201H425.307V316.395H422.433V336.201Z" fill="#F5F5F5"/>
<path d="M401.484 336.19H407.231V314.408H401.484V336.19Z" fill="#EBEBEB"/>
<path d="M395.737 336.201H401.484V316.395H395.737V336.201Z" fill="#F5F5F5"/>
<path d="M383.409 336.201H389.156V316.395H383.409V336.201Z" fill="#E6E6E6"/>
<path d="M389.166 336.19H392.873V314.408H389.166V336.19Z" fill="#FAFAFA"/>
<path d="M376.838 336.19H380.545V314.408H376.838V336.19Z" fill="#FAFAFA"/>
<path d="M392.863 336.201H395.737V316.395H392.863V336.201Z" fill="#EBEBEB"/>
<path d="M380.535 336.201H383.409V315.081H380.535V336.201Z" fill="#F0F0F0"/>
<path d="M439.13 270.416H367.159V344.427H436.779V349.512H441.48V270.458L439.13 270.416ZM436.779 336.201H371.614V309.547H436.779V336.201ZM436.779 304.847H371.614V278.631H436.779V304.847Z" fill="#F0F0F0"/>
<path d="M299.174 339.726H369.275V276.024H299.174V339.726Z" fill="#E6E6E6"/>
<path d="M301.866 349.512H310.679V343.497H301.866V349.512Z" fill="#E6E6E6"/>
<path d="M361.156 304.815H366.903V281.964H361.156V304.815Z" fill="#FAFAFA"/>
<path d="M337.344 304.815H343.091V281.964H337.344V304.815Z" fill="#F5F5F5"/>
<path d="M355.419 304.815H361.167V283.94H355.419V304.815Z" fill="#F5F5F5"/>
<path d="M343.091 304.815H348.839V283.94H343.091V304.815Z" fill="#FAFAFA"/>
<path d="M348.838 304.815H352.545V281.964H348.838V304.815Z" fill="#EBEBEB"/>
<path d="M352.546 304.815H355.419V283.94H352.546V304.815Z" fill="#FAFAFA"/>
<path d="M335.389 304.815H341.137V281.964H335.389V304.815Z" fill="#EBEBEB"/>
<path d="M329.641 304.815H335.389V283.94H329.641V304.815Z" fill="#E6E6E6"/>
<path d="M317.313 304.815H323.061V283.94H317.313V304.815Z" fill="#E6E6E6"/>
<path d="M323.071 304.815H326.778V281.964H323.071V304.815Z" fill="#FAFAFA"/>
<path d="M326.767 304.815H329.641V283.94H326.767V304.815Z" fill="#EBEBEB"/>
<path d="M314.451 304.815H317.324V282.626H314.451V304.815Z" fill="#F5F5F5"/>
<path d="M317.495 314.418H311.748V336.201H317.495V314.418Z" fill="#FAFAFA"/>
<path d="M341.307 314.418H335.56V336.201H341.307V314.418Z" fill="#FAFAFA"/>
<path d="M323.242 316.395H317.495V336.201H323.242V316.395Z" fill="#F5F5F5"/>
<path d="M335.571 316.395H329.824V336.201H335.571V316.395Z" fill="#EBEBEB"/>
<path d="M329.812 314.418H326.105V336.201H329.812V314.418Z" fill="#FAFAFA"/>
<path d="M326.106 316.395H323.232V336.201H326.106V316.395Z" fill="#F5F5F5"/>
<path d="M343.273 314.418H337.526V336.201H343.273V314.418Z" fill="#EBEBEB"/>
<path d="M349.01 316.395H343.262V336.201H349.01V316.395Z" fill="#F5F5F5"/>
<path d="M361.337 316.395H355.59V336.201H361.337V316.395Z" fill="#E6E6E6"/>
<path d="M355.59 314.418H351.883V336.201H355.59V314.418Z" fill="#FAFAFA"/>
<path d="M367.16 314.418H363.453V336.201H367.16V314.418Z" fill="#FAFAFA"/>
<path d="M351.883 316.395H349.009V336.201H351.883V316.395Z" fill="#EBEBEB"/>
<path d="M364.212 315.081H361.338V336.201H364.212V315.081Z" fill="#EBEBEB"/>
<path d="M297.165 270.416V349.469H301.865V344.384H371.486V270.416H297.165ZM301.865 309.547H367.031V336.201H301.865V309.547ZM301.865 278.631H367.031V304.847H301.865V278.631Z" fill="#F0F0F0"/>
<path d="M267.072 398.001C381.467 398.001 474.203 392.587 474.203 385.908C474.203 379.229 381.467 373.815 267.072 373.815C152.677 373.815 59.9419 379.229 59.9419 385.908C59.9419 392.587 152.677 398.001 267.072 398.001Z" fill="#F5F5F5"/>
<path d="M408.14 339.31C408.14 339.31 399.85 329.46 394.551 334.054C389.252 338.647 391.934 348.401 398.044 348.721C401.668 348.917 405.245 347.823 408.14 345.634V339.31Z" fill="#159895"/>
<path opacity="0.2" d="M408.14 339.31C408.14 339.31 399.85 329.46 394.551 334.054C389.252 338.647 391.934 348.401 398.044 348.721C401.668 348.917 405.245 347.823 408.14 345.634V339.31Z" fill="white"/>
<path d="M441.929 314.312C441.929 314.312 448.884 307.026 453.189 308.265C457.494 309.504 457.056 326.907 443.692 319.856L441.929 314.312Z" fill="#159895"/>
<path opacity="0.3" d="M441.929 314.312C441.929 314.312 448.884 307.026 453.189 308.265C457.494 309.504 457.056 326.907 443.692 319.856L441.929 314.312Z" fill="white"/>
<path d="M417.081 368.677C417.081 368.677 394.22 337.408 412.808 331.073C431.396 324.738 434.676 356.231 429.377 365.002C424.078 373.773 417.081 368.677 417.081 368.677Z" fill="#159895"/>
<path d="M427.678 304.654C427.678 304.654 441.865 271.73 420.862 270.736C399.86 269.743 397.563 303.383 421.738 308.265L427.678 304.654Z" fill="#159895"/>
<path opacity="0.3" d="M417.081 368.677C417.081 368.677 394.22 337.408 412.808 331.073C431.396 324.738 434.676 356.231 429.377 365.002C424.078 373.773 417.081 368.677 417.081 368.677Z" fill="white"/>
<path opacity="0.3" d="M427.678 304.654C427.678 304.654 441.865 271.73 420.862 270.736C399.86 269.743 397.563 303.383 421.738 308.265L427.678 304.654Z" fill="white"/>
<path d="M422.647 331.607C422.647 331.607 415.757 302.539 429.057 300.221C442.357 297.903 455.39 324.172 427.989 337.376C427.924 337.376 423.224 334.459 422.647 331.607Z" fill="#159895"/>
<path opacity="0.2" d="M422.647 331.607C422.647 331.607 415.757 302.539 429.057 300.221C442.357 297.903 455.39 324.172 427.989 337.376C427.924 337.376 423.224 334.459 422.647 331.607Z" fill="white"/>
<path d="M400.629 364.243H439.002L435.797 388.803H403.834L400.629 364.243Z" fill="#263238"/>
<path d="M420.585 302.325C412.679 296.546 407.199 285.372 411.868 275.96C411.675 276.836 411.44 277.787 411.227 278.663C409.667 287.583 414.56 296.097 420.585 302.325Z" fill="#159895"/>
<path d="M415.564 274.048C424.676 275.896 428.704 285.564 427.646 294.078C427.443 295.285 427.272 296.471 427.027 297.657C427.146 295.272 427.121 292.882 426.952 290.499C426.386 283.481 422.519 276.612 415.564 274.048Z" fill="#159895"/>
<path d="M431.588 302.325C436.705 304.131 439.91 309.75 439.921 315.07C439.921 319.706 437.357 323.916 434.494 327.377C432.407 329.89 430.021 332.139 427.39 334.075C429.714 331.845 431.857 329.434 433.799 326.864C436.182 323.659 438.275 320.187 438.799 316.235C439.248 310.744 436.566 304.889 431.535 302.347L431.588 302.325Z" fill="#159895"/>
<path d="M427.678 304.654C429.045 308.927 430.263 314.002 428.041 318.189C426.182 320.903 425.99 324.45 425.905 327.687C425.905 328.819 425.905 329.941 425.979 331.073C425.434 328.855 425.186 326.573 425.242 324.289C425.206 321.936 425.847 319.622 427.09 317.623C429.141 313.713 428.159 308.874 427.635 304.654H427.678Z" fill="#159895"/>
<path d="M418.363 334.054C423.705 336.799 425.841 355.238 425.638 361.038C425.478 359.863 425.296 358.699 425.072 357.535C424.057 351.723 423 345.89 421.461 340.196C420.746 338.06 420.286 335.432 418.363 334.054Z" fill="#159895"/>
<path d="M411.867 335.068C410.58 339.254 410.384 343.699 411.296 347.983C412.208 352.266 414.199 356.245 417.081 359.543C416.233 358.816 415.43 358.038 414.677 357.214C412.096 354.201 410.454 350.498 409.954 346.562C409.455 342.626 410.12 338.63 411.867 335.068Z" fill="#159895"/>
<path d="M447.324 317.858C449.759 317.207 451.832 316.619 453.605 314.824C453.167 317.549 449.706 318.831 447.324 317.858Z" fill="#159895"/>
<path d="M445.903 313.062C447.046 310.733 450.956 309.28 452.612 311.812C450.272 310.797 447.997 312.068 445.903 313.062Z" fill="#159895"/>
<path d="M404.358 340.784C401.687 338.904 398.92 335.699 395.47 337.376C398.279 334.043 403.001 337.771 404.358 340.784Z" fill="#159895"/>
<path d="M404.357 345.634C400.864 346.916 393.888 347.012 393.461 342.13C395.459 346.115 400.554 345.239 404.357 345.634Z" fill="#159895"/>
<path d="M337.205 367.491C337.389 367.119 337.479 366.708 337.469 366.293C337.459 365.879 337.348 365.473 337.146 365.11C336.944 364.748 336.658 364.44 336.311 364.213C335.964 363.985 335.567 363.846 335.154 363.805C335.508 362.748 335.531 361.608 335.22 360.537C334.909 359.466 334.278 358.515 333.413 357.812C333.207 357.614 332.939 357.494 332.655 357.47C332.352 357.503 332.068 357.63 331.843 357.834L327.046 361.284C326.656 361.518 326.327 361.84 326.085 362.224C325.102 364.126 328.648 366.562 327.153 368.132C326.736 368.591 326.085 368.677 325.54 369.008C324.397 369.724 324.258 371.294 323.724 372.533C323.189 373.773 321.331 374.723 320.615 373.602C321.149 372.416 319.547 371.39 318.265 371.241C316.983 371.091 315.626 371.016 314.921 369.809C313.083 371.412 308.992 366.946 309.077 365.151C308.356 365.281 307.693 365.633 307.182 366.158C306.671 366.683 306.336 367.354 306.225 368.079C306.016 369.565 305.963 371.068 306.065 372.565C306.065 375.482 305.082 378.334 305.135 381.251C305.135 383.515 306.054 386.026 308.127 386.944C309.153 387.31 310.245 387.456 311.331 387.372L334.973 387.222C335.542 387.266 336.114 387.171 336.639 386.944C337.707 386.389 337.932 384.99 338.028 383.793C338.441 378.658 338.865 373.523 339.299 368.388L337.205 367.491Z" fill="#159895"/>
<path opacity="0.3" d="M337.205 367.491C337.389 367.119 337.479 366.708 337.469 366.293C337.459 365.879 337.348 365.473 337.146 365.11C336.944 364.748 336.658 364.44 336.311 364.213C335.964 363.985 335.567 363.846 335.154 363.805C335.508 362.748 335.531 361.608 335.22 360.537C334.909 359.466 334.278 358.515 333.413 357.812C333.207 357.614 332.939 357.494 332.655 357.47C332.352 357.503 332.068 357.63 331.843 357.834L327.046 361.284C326.656 361.518 326.327 361.84 326.085 362.224C325.102 364.126 328.648 366.562 327.153 368.132C326.736 368.591 326.085 368.677 325.54 369.008C324.397 369.724 324.258 371.294 323.724 372.533C323.189 373.773 321.331 374.723 320.615 373.602C321.149 372.416 319.547 371.39 318.265 371.241C316.983 371.091 315.626 371.016 314.921 369.809C313.083 371.412 308.992 366.946 309.077 365.151C308.356 365.281 307.693 365.633 307.182 366.158C306.671 366.683 306.336 367.354 306.225 368.079C306.016 369.565 305.963 371.068 306.065 372.565C306.065 375.482 305.082 378.334 305.135 381.251C305.135 383.515 306.054 386.026 308.127 386.944C309.153 387.31 310.245 387.456 311.331 387.372L334.973 387.222C335.542 387.266 336.114 387.171 336.639 386.944C337.707 386.389 337.932 384.99 338.028 383.793C338.441 378.658 338.865 373.523 339.299 368.388L337.205 367.491Z" fill="white"/>
<path d="M338.647 342.45H301.909L302.208 346.157L302.432 348.807L302.988 355.686L303.308 359.65L303.725 364.906L303.906 367.17L303.971 367.843L304.184 370.493L304.483 374.136L304.665 376.39L304.846 378.687L305.06 381.336L305.231 383.344L305.413 385.598L305.487 386.581H339.149L339.224 385.598L339.406 383.355L339.577 381.325L339.79 378.676L339.972 376.39L340.153 374.136L340.453 370.482L340.666 367.843L340.72 367.17L340.901 364.906L341.329 359.65L341.649 355.697L342.205 348.807L342.418 346.157L342.717 342.45H338.647ZM340.848 344.886L340.143 344.17H340.912L340.848 344.886ZM340.666 347.129L340.602 348.027L337.312 351.306L333.551 347.546L336.916 344.17H337.707L340.666 347.129ZM339.715 358.881L337.312 361.284L333.551 357.513L337.312 353.763L339.918 356.359L339.715 358.881ZM304.814 356.359L307.421 353.763L311.181 357.513L307.421 361.284L305.028 358.881L304.814 356.359ZM336.051 352.535L332.237 356.295L328.52 352.535L332.28 348.775L336.051 352.535ZM330.101 344.17H334.374L332.237 346.307L330.101 344.17ZM331.041 357.502L327.281 361.274L323.509 357.502L327.281 353.753L331.041 357.502ZM318.531 362.491L322.302 358.731L326.052 362.491L322.302 366.252L318.531 362.491ZM321.074 367.47L317.281 371.241L313.574 367.491L317.335 363.72L321.074 367.47ZM327.281 363.709L331.062 367.491L327.302 371.251L323.531 367.491L327.281 363.709ZM322.302 356.295L318.553 352.535L322.324 348.775L326.073 352.535L322.302 356.295ZM321.074 357.502L317.313 361.274L313.553 357.502L317.313 353.753L321.074 357.502ZM312.324 356.295L308.585 352.535L312.346 348.775L316.117 352.535L312.324 356.295ZM312.324 358.731L316.096 362.491L312.324 366.252L308.564 362.491L312.324 358.731ZM316.096 372.458L312.324 376.219L308.564 372.458L312.324 368.698L316.096 372.458ZM317.303 373.676L321.074 377.437L317.313 381.208L313.553 377.437L317.303 373.676ZM318.531 372.458L322.302 368.698L326.052 372.458L322.302 376.219L318.531 372.458ZM327.281 373.676L331.041 377.437L327.281 381.208L323.509 377.437L327.281 373.676ZM332.259 378.655L336.03 382.426L333.583 384.861H330.955L328.52 382.447L332.259 378.655ZM328.498 372.458L332.259 368.698L336.03 372.458L332.237 376.219L328.498 372.458ZM328.498 362.491L332.237 358.731L336.008 362.491L332.237 366.252L328.498 362.491ZM331.041 347.535L327.281 351.296L323.509 347.535L326.885 344.16H327.676L331.041 347.535ZM322.302 346.317L320.166 344.181H324.439L322.302 346.317ZM321.074 347.535L317.313 351.296L313.553 347.535L316.918 344.16H317.709L321.074 347.535ZM314.482 344.16L312.346 346.296L310.209 344.16H314.482ZM307.742 344.16L311.107 347.535L307.346 351.296L304.067 348.016L304.003 347.119L306.951 344.16H307.742ZM304.537 344.16L303.842 344.865L303.778 344.16H304.537ZM304.302 350.676L306.15 352.514L304.579 354.084L304.302 350.676ZM305.37 363.293L305.231 361.509L306.193 362.481L305.37 363.293ZM305.552 365.568L307.41 363.699L311.171 367.47L307.41 371.23L305.893 369.713L305.552 365.568ZM306.118 372.523V372.362L306.203 372.448L306.128 372.523H306.118ZM306.769 380.545L306.299 374.777L307.368 373.708L311.128 377.469L307.368 381.229L306.727 380.588L306.769 380.545ZM307.111 384.819L307.047 383.953L307.41 383.59L308.628 384.819H307.111ZM308.628 382.383L312.389 378.612L316.16 382.383L313.713 384.819H311.064L308.628 382.383ZM316.16 384.819L317.378 383.59L318.606 384.819H316.16ZM321.031 384.819L318.553 382.447L322.324 378.676L326.073 382.447L323.691 384.861L321.031 384.819ZM326.116 384.819L327.345 383.59L328.562 384.819H326.116ZM337.6 384.819H336.083L337.301 383.59L337.664 383.953L337.6 384.819ZM337.953 380.545L337.301 381.186L333.541 377.426L337.301 373.666L338.369 374.734L337.953 380.545ZM338.615 372.352V372.523L338.54 372.448L338.636 372.352H338.615ZM338.829 369.713L337.301 371.23L333.498 367.491L337.258 363.72L339.128 365.589L338.829 369.713ZM339.352 363.303L338.519 362.481L339.491 361.509L339.352 363.303ZM340.42 350.665L340.143 354.095L338.476 352.535L340.335 350.687L340.42 350.665Z" fill="#159895"/>
<g opacity="0.6">
<path d="M338.647 342.45H301.909L302.208 346.157L302.432 348.807L302.988 355.686L303.308 359.65L303.725 364.906L303.906 367.17L303.971 367.843L304.184 370.493L304.483 374.136L304.665 376.39L304.846 378.687L305.06 381.336L305.231 383.344L305.413 385.598L305.487 386.581H339.149L339.224 385.598L339.406 383.355L339.577 381.325L339.79 378.676L339.972 376.39L340.153 374.136L340.453 370.482L340.666 367.843L340.72 367.17L340.901 364.906L341.329 359.65L341.649 355.697L342.205 348.807L342.418 346.157L342.717 342.45H338.647ZM340.848 344.886L340.143 344.17H340.912L340.848 344.886ZM340.666 347.129L340.602 348.027L337.312 351.306L333.551 347.546L336.916 344.17H337.707L340.666 347.129ZM339.715 358.881L337.312 361.284L333.551 357.513L337.312 353.763L339.918 356.359L339.715 358.881ZM304.814 356.359L307.421 353.763L311.181 357.513L307.421 361.284L305.028 358.881L304.814 356.359ZM336.051 352.535L332.237 356.295L328.52 352.535L332.28 348.775L336.051 352.535ZM330.101 344.17H334.374L332.237 346.307L330.101 344.17ZM331.041 357.502L327.281 361.274L323.509 357.502L327.281 353.753L331.041 357.502ZM318.531 362.491L322.302 358.731L326.052 362.491L322.302 366.252L318.531 362.491ZM321.074 367.47L317.281 371.241L313.574 367.491L317.335 363.72L321.074 367.47ZM327.281 363.709L331.062 367.491L327.302 371.251L323.531 367.491L327.281 363.709ZM322.302 356.295L318.553 352.535L322.324 348.775L326.073 352.535L322.302 356.295ZM321.074 357.502L317.313 361.274L313.553 357.502L317.313 353.753L321.074 357.502ZM312.324 356.295L308.585 352.535L312.346 348.775L316.117 352.535L312.324 356.295ZM312.324 358.731L316.096 362.491L312.324 366.252L308.564 362.491L312.324 358.731ZM316.096 372.458L312.324 376.219L308.564 372.458L312.324 368.698L316.096 372.458ZM317.303 373.676L321.074 377.437L317.313 381.208L313.553 377.437L317.303 373.676ZM318.531 372.458L322.302 368.698L326.052 372.458L322.302 376.219L318.531 372.458ZM327.281 373.676L331.041 377.437L327.281 381.208L323.509 377.437L327.281 373.676ZM332.259 378.655L336.03 382.426L333.583 384.861H330.955L328.52 382.447L332.259 378.655ZM328.498 372.458L332.259 368.698L336.03 372.458L332.237 376.219L328.498 372.458ZM328.498 362.491L332.237 358.731L336.008 362.491L332.237 366.252L328.498 362.491ZM331.041 347.535L327.281 351.296L323.509 347.535L326.885 344.16H327.676L331.041 347.535ZM322.302 346.317L320.166 344.181H324.439L322.302 346.317ZM321.074 347.535L317.313 351.296L313.553 347.535L316.918 344.16H317.709L321.074 347.535ZM314.482 344.16L312.346 346.296L310.209 344.16H314.482ZM307.742 344.16L311.107 347.535L307.346 351.296L304.067 348.016L304.003 347.119L306.951 344.16H307.742ZM304.537 344.16L303.842 344.865L303.778 344.16H304.537ZM304.302 350.676L306.15 352.514L304.579 354.084L304.302 350.676ZM305.37 363.293L305.231 361.509L306.193 362.481L305.37 363.293ZM305.552 365.568L307.41 363.699L311.171 367.47L307.41 371.23L305.893 369.713L305.552 365.568ZM306.118 372.523V372.362L306.203 372.448L306.128 372.523H306.118ZM306.769 380.545L306.299 374.777L307.368 373.708L311.128 377.469L307.368 381.229L306.727 380.588L306.769 380.545ZM307.111 384.819L307.047 383.953L307.41 383.59L308.628 384.819H307.111ZM308.628 382.383L312.389 378.612L316.16 382.383L313.713 384.819H311.064L308.628 382.383ZM316.16 384.819L317.378 383.59L318.606 384.819H316.16ZM321.031 384.819L318.553 382.447L322.324 378.676L326.073 382.447L323.691 384.861L321.031 384.819ZM326.116 384.819L327.345 383.59L328.562 384.819H326.116ZM337.6 384.819H336.083L337.301 383.59L337.664 383.953L337.6 384.819ZM337.953 380.545L337.301 381.186L333.541 377.426L337.301 373.666L338.369 374.734L337.953 380.545ZM338.615 372.352V372.523L338.54 372.448L338.636 372.352H338.615ZM338.829 369.713L337.301 371.23L333.498 367.491L337.258 363.72L339.128 365.589L338.829 369.713ZM339.352 363.303L338.519 362.481L339.491 361.509L339.352 363.303ZM340.42 350.665L340.143 354.095L338.476 352.535L340.335 350.687L340.42 350.665Z" fill="white"/>
</g>
<path d="M301.311 345.719H343.316C344.283 345.719 345.068 344.935 345.068 343.967V342.675C345.068 341.707 344.283 340.923 343.316 340.923H301.311C300.343 340.923 299.559 341.707 299.559 342.675V343.967C299.559 344.935 300.343 345.719 301.311 345.719Z" fill="#159895"/>
<path d="M340.036 384.007H304.601C303.634 384.007 302.849 384.791 302.849 385.759V387.051C302.849 388.019 303.634 388.803 304.601 388.803H340.036C341.004 388.803 341.788 388.019 341.788 387.051V385.759C341.788 384.791 341.004 384.007 340.036 384.007Z" fill="#159895"/>
<path d="M193.659 99.6285H162.968C160.46 99.6285 158.055 100.625 156.282 102.398C154.509 104.171 153.513 106.575 153.513 109.083V135.79C153.513 138.298 154.509 140.702 156.282 142.475C158.055 144.248 160.46 145.244 162.968 145.244H171.92L164.442 160.083L178.33 145.244H193.702C194.943 145.244 196.172 145 197.319 144.525C198.465 144.049 199.507 143.353 200.384 142.475C201.261 141.597 201.956 140.554 202.43 139.407C202.904 138.26 203.147 137.031 203.146 135.79V109.083C203.147 107.838 202.903 106.606 202.426 105.456C201.949 104.306 201.25 103.262 200.369 102.383C199.487 101.504 198.44 100.809 197.289 100.336C196.138 99.8633 194.904 99.6229 193.659 99.6285Z" fill="#159895"/>
<path opacity="0.7" d="M193.659 99.6285H162.968C160.46 99.6285 158.055 100.625 156.282 102.398C154.509 104.171 153.513 106.575 153.513 109.083V135.79C153.513 138.298 154.509 140.702 156.282 142.475C158.055 144.248 160.46 145.244 162.968 145.244H171.92L164.442 160.083L178.33 145.244H193.702C194.943 145.244 196.172 145 197.319 144.525C198.465 144.049 199.507 143.353 200.384 142.475C201.261 141.597 201.956 140.554 202.43 139.407C202.904 138.26 203.147 137.031 203.146 135.79V109.083C203.147 107.838 202.903 106.606 202.426 105.456C201.949 104.306 201.25 103.262 200.369 102.383C199.487 101.504 198.44 100.809 197.289 100.336C196.138 99.8633 194.904 99.6229 193.659 99.6285Z" fill="white"/>
<path d="M176.716 129.124C176.513 129.124 176.313 129.081 176.128 128.996C175.944 128.911 175.78 128.787 175.648 128.633L169.666 121.593C169.547 121.452 169.456 121.29 169.4 121.115C169.343 120.939 169.322 120.755 169.337 120.571C169.351 120.388 169.402 120.209 169.486 120.045C169.57 119.881 169.686 119.735 169.826 119.616C170.109 119.375 170.477 119.257 170.847 119.287C171.031 119.302 171.21 119.353 171.374 119.437C171.537 119.521 171.683 119.636 171.802 119.776L176.716 125.567L184.814 116.005C184.933 115.865 185.079 115.75 185.243 115.666C185.407 115.582 185.586 115.531 185.769 115.516C185.953 115.501 186.137 115.522 186.313 115.579C186.488 115.635 186.65 115.726 186.79 115.845C186.931 115.964 187.046 116.11 187.13 116.274C187.214 116.438 187.265 116.617 187.28 116.8C187.295 116.984 187.273 117.168 187.217 117.344C187.16 117.519 187.07 117.681 186.951 117.821L177.774 128.633C177.644 128.787 177.483 128.911 177.3 128.996C177.117 129.081 176.918 129.124 176.716 129.124Z" fill="white"/>
<path d="M189.077 133.092C195.027 127.143 195.027 117.498 189.077 111.549C183.128 105.599 173.483 105.599 167.534 111.549C161.584 117.498 161.584 127.143 167.534 133.092C173.483 139.042 183.128 139.042 189.077 133.092Z" fill="#159895"/>
<path d="M218.999 386.848H281.174C281.499 386.848 281.812 386.719 282.042 386.488C282.273 386.258 282.402 385.946 282.402 385.62V381.656C282.399 381.332 282.269 381.023 282.039 380.795C281.808 380.567 281.498 380.439 281.174 380.439H222.204V253.505H280.169C280.76 253.505 281.326 253.271 281.744 252.854C282.163 252.438 282.399 251.873 282.402 251.283V247.095H218.999C218.149 247.095 217.334 247.433 216.733 248.034C216.132 248.635 215.794 249.45 215.794 250.3V383.643C215.794 384.493 216.132 385.309 216.733 385.91C217.334 386.511 218.149 386.848 218.999 386.848Z" fill="#263238"/>
<g opacity="0.3">
<path d="M215.794 250.3V383.633C215.794 384.483 216.132 385.298 216.733 385.899C217.334 386.5 218.149 386.838 218.999 386.838H281.174C281.497 386.838 281.806 386.709 282.035 386.481C282.263 386.253 282.391 385.943 282.391 385.62V381.656C282.392 381.332 282.264 381.022 282.035 380.791C281.807 380.561 281.498 380.431 281.174 380.428H222.204V253.505H280.169C280.76 253.502 281.325 253.265 281.741 252.847C282.158 252.429 282.391 251.862 282.391 251.272V247.095H218.999C218.149 247.095 217.334 247.433 216.733 248.034C216.132 248.635 215.794 249.45 215.794 250.3Z" fill="white"/>
</g>
<path opacity="0.2" d="M215.794 250.3V284.303C217.931 284.845 220.068 285.368 222.204 285.874V253.505H280.169C280.76 253.502 281.325 253.265 281.741 252.847C282.158 252.429 282.391 251.862 282.391 251.272V247.095H218.999C218.149 247.095 217.334 247.433 216.733 248.034C216.132 248.635 215.794 249.45 215.794 250.3Z" fill="black"/>
<path d="M103.357 368.955L128.846 366.733V333.306H137.809V366.775L163.448 368.955C164.536 369.061 165.546 369.568 166.28 370.378C167.015 371.187 167.422 372.241 167.422 373.335V376.732H99.3506V373.335C99.3515 372.236 99.7629 371.178 100.504 370.368C101.245 369.557 102.263 369.053 103.357 368.955Z" fill="#263238"/>
<path opacity="0.1" d="M103.357 368.955L128.846 366.733V333.306H137.809V366.775L163.448 368.955C164.536 369.061 165.546 369.568 166.28 370.378C167.015 371.187 167.422 372.241 167.422 373.335V376.732H99.3506V373.335C99.3515 372.236 99.7629 371.178 100.504 370.368C101.245 369.557 102.263 369.053 103.357 368.955Z" fill="white"/>
<path d="M159.111 380.951C159.111 382.111 159.455 383.245 160.099 384.21C160.744 385.174 161.66 385.926 162.731 386.37C163.803 386.814 164.982 386.93 166.12 386.704C167.258 386.477 168.303 385.919 169.123 385.098C169.943 384.278 170.502 383.233 170.728 382.096C170.954 380.958 170.838 379.779 170.394 378.707C169.95 377.635 169.199 376.719 168.234 376.075C167.27 375.43 166.136 375.086 164.976 375.086C164.205 375.085 163.442 375.236 162.73 375.53C162.017 375.824 161.37 376.256 160.825 376.801C160.281 377.346 159.849 377.993 159.554 378.705C159.26 379.417 159.109 380.181 159.111 380.951Z" fill="#263238"/>
<path d="M107.63 380.951C107.63 382.112 107.286 383.246 106.641 384.211C105.996 385.176 105.08 385.927 104.007 386.371C102.935 386.814 101.755 386.93 100.617 386.703C99.4792 386.476 98.4342 385.916 97.6144 385.095C96.7946 384.273 96.2369 383.227 96.0118 382.089C95.7867 380.951 95.9044 379.771 96.3499 378.7C96.7954 377.628 97.5488 376.713 98.5147 376.07C99.4806 375.427 100.616 375.084 101.776 375.086C102.546 375.086 103.308 375.238 104.019 375.533C104.73 375.828 105.376 376.26 105.919 376.805C106.463 377.35 106.894 377.996 107.188 378.708C107.481 379.419 107.632 380.182 107.63 380.951Z" fill="#263238"/>
<path d="M135.383 340.089H131.27C130.219 340.089 129.211 339.672 128.468 338.929C127.725 338.185 127.307 337.177 127.307 336.126V307.282H139.347V336.126C139.347 337.177 138.929 338.185 138.186 338.929C137.443 339.672 136.434 340.089 135.383 340.089Z" fill="#263238"/>
<path opacity="0.2" d="M135.383 340.089H131.27C130.219 340.089 129.211 339.672 128.468 338.929C127.725 338.185 127.307 337.177 127.307 336.126V307.282H139.347V336.126C139.347 337.177 138.929 338.185 138.186 338.929C137.443 339.672 136.434 340.089 135.383 340.089Z" fill="white"/>
<path d="M106.893 241.07C106.893 241.07 109.649 296.439 121.571 305.968H108.816C108.816 305.968 97.4489 287.102 96.605 241.07H106.893Z" fill="#263238"/>
<path opacity="0.1" d="M106.893 241.07C106.893 241.07 109.649 296.439 121.571 305.968H108.816C108.816 305.968 97.4489 287.102 96.605 241.07H106.893Z" fill="white"/>
<path d="M105.857 301.375H162.38C163.652 301.375 164.872 301.88 165.771 302.78C166.671 303.679 167.176 304.899 167.176 306.171V310.551H101.049V306.171C101.049 305.54 101.174 304.916 101.415 304.333C101.657 303.751 102.011 303.221 102.458 302.776C102.905 302.33 103.435 301.977 104.018 301.737C104.601 301.496 105.226 301.373 105.857 301.375Z" fill="#159895"/>
<path d="M167.774 305.968H100.472C99.4043 305.968 98.5386 306.834 98.5386 307.902V308.618C98.5386 309.686 99.4043 310.551 100.472 310.551H167.774C168.842 310.551 169.708 309.686 169.708 308.618V307.902C169.708 306.834 168.842 305.968 167.774 305.968Z" fill="#263238"/>
<path opacity="0.6" d="M167.774 305.968H100.472C99.4043 305.968 98.5386 306.834 98.5386 307.902V308.618C98.5386 309.686 99.4043 310.551 100.472 310.551H167.774C168.842 310.551 169.708 309.686 169.708 308.618V307.902C169.708 306.834 168.842 305.968 167.774 305.968Z" fill="white"/>
<path d="M94.3622 253.184H114.799C120.781 253.184 125.097 247.843 124.413 241.166L123.548 232.321C122.885 225.686 117.512 220.302 111.53 220.302H91.1253C85.1429 220.302 80.827 225.644 81.5107 232.321L82.376 241.166C82.9956 247.843 88.3798 253.184 94.3622 253.184Z" fill="#159895"/>
<path d="M161.802 205.421C163.074 209.448 164.569 213.647 166.215 217.493C167.603 220.698 169.58 224.778 171.834 226.926C173.885 228.752 178.767 229.447 181.94 229.863C186.213 230.408 190.764 230.611 195.197 230.793L195.988 236.775C191.288 238.037 186.468 238.799 181.609 239.051C176.182 239.243 169.857 239.051 165.157 235.718C158.331 230.376 155.361 223.261 152.337 215.751C151.483 213.369 150.714 211.19 150.062 208.69L161.813 205.421H161.802Z" fill="#B65B52"/>
<path d="M156.557 199.77C159.922 200.924 162.967 205.763 171.439 225.174C171.439 225.174 172.817 227.545 179.686 229.03L179.055 239.927C179.055 239.927 169.249 239.499 166.973 237.929C164.698 236.359 151.056 213.914 151.056 213.914L156.557 199.77Z" fill="#263238"/>
<path opacity="0.2" d="M179.686 229.052L179.055 239.948C179.055 239.948 171.193 239.606 167.913 238.399C167.583 238.288 167.267 238.138 166.973 237.95C165.659 237.032 160.563 229.137 156.45 222.642C153.47 217.92 151.109 213.935 151.109 213.935L156.557 199.77C159.922 200.924 162.967 205.763 171.449 225.163C171.449 225.184 172.816 227.545 179.686 229.052Z" fill="white"/>
<path opacity="0.2" d="M167.913 238.399C167.583 238.288 167.267 238.138 166.973 237.95C165.659 237.032 160.564 229.137 156.451 222.642C157.521 218.959 158.787 215.336 160.243 211.788C160.243 211.788 168.063 227.46 167.913 238.399Z" fill="black"/>
<path d="M192.868 231.338L200.528 228.582L199.588 238.837C199.588 238.837 192.559 239.734 191.693 236.038L192.868 231.338Z" fill="#B55B52"/>
<path d="M206.874 230.654L205.698 239.104L199.588 238.837L200.528 228.582L206.874 230.654Z" fill="#B55B52"/>
<path d="M179.739 228.582L183.649 229.757L182.218 240.354L178.308 241.027L179.739 228.582Z" fill="#263238"/>
<path d="M162.102 267.168C162.102 267.168 213.796 287.562 225.814 296.087C237.833 304.612 268.14 362.085 268.14 362.085L255.609 371.7C255.609 371.7 219.458 319.204 215.014 315.647C210.57 312.09 153.053 294.431 153.053 294.431L162.102 267.168Z" fill="#159895"/>
<path opacity="0.4" d="M268.14 362.085L255.609 371.7C255.609 371.7 247.169 359.447 237.95 346.382C228.09 332.398 217.332 317.538 215.046 315.647C211.841 313.04 180.166 302.892 163.384 297.636C157.209 295.691 153.053 294.431 153.053 294.431L162.091 267.136C162.091 267.136 213.775 287.53 225.804 296.055C237.833 304.58 268.14 362.085 268.14 362.085Z" fill="white"/>
<path d="M270.437 382.65L276.473 376.582L266.602 361.316L260.577 367.384L270.437 382.65Z" fill="#B55B52"/>
<path opacity="0.2" d="M260.577 367.384L266.602 361.327L272.242 370.055L266.004 375.802L260.577 367.384Z" fill="black"/>
<path d="M277.52 375.92C277.52 375.92 277.52 375.92 277.595 375.92C278.306 375.659 278.986 375.322 279.625 374.916C280.122 374.649 280.503 374.208 280.693 373.676C280.732 373.477 280.714 373.271 280.64 373.082C280.566 372.892 280.44 372.728 280.276 372.608C280.188 372.516 280.078 372.449 279.957 372.411C279.835 372.374 279.706 372.368 279.582 372.394C278.994 372.533 278.417 373.367 277.979 374.168C278.072 373.42 277.898 372.663 277.488 372.031C277.368 371.91 277.211 371.834 277.042 371.814C276.873 371.795 276.703 371.834 276.559 371.924C276.425 371.987 276.307 372.081 276.216 372.198C276.125 372.315 276.063 372.452 276.035 372.597C275.789 373.751 277.338 375.61 277.413 375.717L277.52 375.61L277.424 375.727C277.424 375.727 277.349 375.845 277.349 375.856C277.365 375.885 277.391 375.908 277.423 375.92C277.454 375.931 277.489 375.932 277.52 375.92ZM277.573 375.129C277.573 375.193 277.52 375.257 277.499 375.311C277.029 374.648 276.334 373.484 276.484 372.8C276.496 372.72 276.526 372.643 276.57 372.575C276.614 372.507 276.672 372.449 276.74 372.405H276.815C277.071 372.277 277.21 372.352 277.296 372.405C277.705 373.253 277.803 374.217 277.573 375.129ZM277.937 375.386C278.407 374.317 279.187 372.929 279.774 372.8C279.835 372.785 279.9 372.787 279.96 372.805C280.021 372.824 280.074 372.859 280.116 372.907C280.216 372.984 280.294 373.085 280.342 373.202C280.391 373.318 280.409 373.444 280.394 373.57C280.276 374.125 279.368 374.787 277.937 375.386Z" fill="#159895"/>
<path d="M276.356 375.375L268.386 380.716C268.317 380.757 268.257 380.811 268.21 380.875C268.162 380.939 268.128 381.012 268.109 381.09C268.09 381.168 268.087 381.248 268.1 381.327C268.112 381.406 268.141 381.482 268.183 381.55L272.029 388.12C272.249 388.452 272.592 388.684 272.982 388.764C273.373 388.844 273.779 388.766 274.112 388.547C276.858 386.635 278.076 385.588 281.59 383.205C284.79 381.237 287.849 379.049 290.746 376.657C293.373 374.21 290.884 371.679 289.56 372.48C286.355 374.371 280.928 375.183 277.873 374.958C277.334 374.916 276.797 375.063 276.356 375.375Z" fill="#263238"/>
<path d="M256.196 375.941L271.847 365.525L268.236 358.165L251.282 369.927L256.196 375.941Z" fill="#159895"/>
<path opacity="0.2" d="M256.196 375.941L271.847 365.525L268.236 358.165L251.282 369.927L256.196 375.941Z" fill="white"/>
<path opacity="0.2" d="M237.972 346.424C228.111 332.44 217.354 317.581 215.068 315.69C211.863 313.083 180.188 302.934 163.405 297.678L161.45 277.381L167.582 276.313L168.277 277.872C168.277 277.872 206.585 286.558 217.418 291.984C224.394 295.414 233.763 329.684 237.972 346.424Z" fill="black"/>
<path d="M235.674 377.95C235.686 377.955 235.699 377.957 235.712 377.957C235.725 377.957 235.737 377.955 235.749 377.95C236.508 377.941 237.264 377.851 238.003 377.682C238.569 377.602 239.084 377.313 239.445 376.871C239.552 376.701 239.608 376.505 239.608 376.304C239.608 376.104 239.552 375.908 239.445 375.738C239.393 375.621 239.311 375.52 239.208 375.443C239.105 375.367 238.985 375.318 238.858 375.3C238.26 375.225 237.437 375.834 236.721 376.443C237.049 375.781 237.128 375.023 236.946 374.307C236.874 374.153 236.753 374.028 236.602 373.953C236.451 373.877 236.278 373.855 236.112 373.89C235.966 373.912 235.826 373.964 235.701 374.043C235.576 374.123 235.469 374.227 235.386 374.349C234.777 375.364 235.621 377.629 235.664 377.757L235.792 377.682L235.664 377.768C235.664 377.768 235.546 377.853 235.557 377.864L235.674 377.95ZM235.995 377.212L235.856 377.362C235.525 376.494 235.48 375.543 235.728 374.649C235.768 374.579 235.822 374.519 235.886 374.471C235.95 374.423 236.024 374.389 236.102 374.371H236.198C236.476 374.371 236.582 374.456 236.625 374.563C236.733 375.493 236.51 376.431 235.995 377.212ZM236.241 377.576C237.042 376.721 238.238 375.674 238.837 375.749C238.899 375.755 238.959 375.779 239.01 375.816C239.061 375.854 239.1 375.904 239.125 375.962C239.185 376.072 239.216 376.195 239.216 376.32C239.216 376.445 239.185 376.568 239.125 376.678C238.869 377.159 237.8 377.49 236.241 377.576Z" fill="#159895"/>
<path d="M226.766 381.945L234.468 378.217L229.885 359.863L222.193 363.592L226.766 381.945Z" fill="#B55B52"/>
<path opacity="0.2" d="M222.193 363.592L229.885 359.874L232.502 370.365L224.704 373.708L222.193 363.592Z" fill="black"/>
<path d="M234.756 377.041L225.462 379.445C225.384 379.46 225.309 379.491 225.243 379.535C225.177 379.58 225.12 379.637 225.076 379.704C225.032 379.771 225.002 379.845 224.988 379.924C224.973 380.002 224.975 380.083 224.992 380.161L226.445 387.639C226.55 388.02 226.8 388.345 227.141 388.544C227.482 388.744 227.888 388.802 228.272 388.707C231.476 387.81 232.993 387.222 237.074 386.133C240.733 385.352 244.331 384.313 247.843 383.024C251.133 381.592 249.627 378.377 248.11 378.697C244.499 379.434 239.061 378.377 236.262 377.148C235.785 376.952 235.257 376.915 234.756 377.041Z" fill="#263238"/>
<path d="M233.635 363.346C233.635 363.346 220.602 297.956 217.931 294.068C213.594 287.658 161.44 277.327 161.44 277.327L167.561 276.259L160.489 257.457L114.051 259.284C114.051 259.284 115.023 289.965 119.745 298.191C124.467 306.417 194.322 310.199 198.862 312.079C203.402 313.959 217.258 365.248 217.258 365.248L233.635 363.346Z" fill="#159895"/>
<path opacity="0.4" d="M233.635 363.346C233.635 363.346 220.602 297.956 217.931 294.068C213.594 287.658 161.44 277.327 161.44 277.327L167.561 276.259L160.489 257.457L114.051 259.284C114.051 259.284 115.023 289.965 119.745 298.191C124.467 306.417 194.322 310.199 198.862 312.079C203.402 313.959 217.258 365.248 217.258 365.248L233.635 363.346Z" fill="white"/>
<path d="M217.535 371.038L235.76 366.401L234.788 358.261L214.896 363.741L217.535 371.038Z" fill="#159895"/>
<path opacity="0.2" d="M217.535 371.038L235.76 366.401L234.788 358.261L214.896 363.741L217.535 371.038Z" fill="white"/>
<path d="M128.75 260L115.289 259.776L115.001 263.846L129.327 264.188L128.75 260Z" fill="#263238"/>
<path d="M130.822 259.925L131.41 264.155L161.45 263.728L160.478 259.872L130.822 259.925Z" fill="#263238"/>
<path d="M145.287 260.662L145.672 263.45C145.728 263.791 145.904 264.1 146.169 264.321C146.434 264.543 146.769 264.662 147.114 264.658L151.921 264.508C152.08 264.511 152.238 264.478 152.383 264.412C152.528 264.346 152.656 264.249 152.758 264.127C152.861 264.005 152.935 263.862 152.975 263.708C153.015 263.554 153.02 263.393 152.989 263.237L152.594 260.438C152.538 260.098 152.361 259.791 152.096 259.571C151.831 259.351 151.496 259.234 151.152 259.241L146.355 259.391C146.196 259.388 146.038 259.421 145.894 259.487C145.749 259.553 145.62 259.65 145.518 259.772C145.416 259.894 145.342 260.037 145.302 260.191C145.262 260.345 145.257 260.506 145.287 260.662Z" fill="white"/>
<path d="M115.225 259.177H159.345C159.874 259.18 160.384 258.988 160.779 258.637C161.173 258.286 161.424 257.801 161.482 257.276C166.93 214.544 156.525 199.791 156.525 199.791C152.563 198.66 148.52 197.835 144.432 197.323C138.458 196.853 132.463 196.725 126.474 196.939C122.395 197.049 118.328 197.452 114.306 198.146C112.17 199.075 109.958 208.594 112.17 238.25C112.747 246.016 112.832 252.725 112.779 256.656C112.77 257.314 113.023 257.949 113.481 258.422C113.94 258.894 114.567 259.166 115.225 259.177Z" fill="#263238"/>
<path d="M150.372 214.907H158.876L159.517 225.056L154.955 228.015L150.372 225.751V214.907Z" fill="#263238"/>
<path opacity="0.2" d="M161.514 257.276C161.456 257.801 161.206 258.286 160.811 258.637C160.417 258.988 159.906 259.18 159.378 259.177H115.258C114.927 259.179 114.6 259.114 114.294 258.988C113.989 258.861 113.712 258.675 113.479 258.441C113.247 258.206 113.063 257.927 112.939 257.621C112.815 257.315 112.754 256.987 112.758 256.656C112.758 252.725 112.758 245.973 112.16 238.25C111.853 233.976 111.629 230.116 111.487 226.669C111.138 220.363 111.174 214.041 111.593 207.739C112.128 201.33 113.228 198.627 114.339 198.125C118.375 197.429 122.456 197.026 126.549 196.917C132.534 196.704 138.526 196.832 144.497 197.302C148.574 197.815 152.606 198.64 156.558 199.77C156.558 199.77 166.963 214.587 161.514 257.276Z" fill="white"/>
<path d="M126.913 196.501L141.164 201.362L141.74 197.281C140.352 194.845 139.999 193.307 141.174 190.476L131.666 179.547C131.912 185.145 130.897 192.794 126.913 196.501Z" fill="#B55B52"/>
<path d="M135.929 203.477L138.728 204.641L141.164 206.169C141.164 206.169 144.422 224.821 143.514 240.568L146.249 242.811L149.133 240.493C149.133 240.493 145.544 211.574 144.251 205.944L144.817 204.588L146.131 201.789L143.706 200.518L139.85 201.362H137.158L135.929 203.477Z" fill="white"/>
<path opacity="0.2" d="M135.534 184.002L141.164 190.476C140.741 191.468 140.401 192.493 140.149 193.542C137.766 192.826 134.807 189.653 134.946 187.068C134.954 186.019 135.153 184.98 135.534 184.002Z" fill="black"/>
<path d="M127.799 193.916C131.821 196.593 136.119 198.832 140.619 200.592C141.11 198.603 141.11 196.524 140.619 194.535L146.911 197.676C146.911 197.676 147.434 202.558 145.992 205.154L141.367 201.767L136.175 206.041C136.175 206.041 126.346 202.248 124.808 197.099L127.799 193.916Z" fill="#263238"/>
<path opacity="0.2" d="M159.859 231.818L145.287 243.57C124.37 248.227 115.172 235.184 111.476 226.637C111.127 220.331 111.163 214.009 111.583 207.707C116.604 207.472 122.853 207.472 124.541 208.775C127.479 211.03 137.713 226.83 139.241 228.005C140.768 229.18 159.859 231.818 159.859 231.818Z" fill="black"/>
<path d="M168.149 231.263L175.808 228.496L174.868 238.752C174.868 238.752 167.839 239.649 166.974 235.953L168.149 231.263Z" fill="#B55B52"/>
<path d="M182.143 230.569L180.978 239.019L174.868 238.752L175.808 228.496L182.143 230.569Z" fill="#B55B52"/>
<path d="M123.59 210.57C125.849 215.034 128.346 219.374 131.068 223.571C132.743 226.316 134.841 228.779 137.285 230.868C137.47 231.028 137.684 231.152 137.916 231.231C140.591 231.938 143.354 232.262 146.12 232.192C153.876 232.267 161.771 231.551 169.558 230.889L170.83 236.786C165.612 238.486 160.292 239.853 154.901 240.878C149.058 241.946 143.727 242.747 137.51 242.149C135.504 241.939 133.557 241.348 131.773 240.407C124.851 236.359 120.609 229.81 116.593 223.315C115.15 220.794 113.837 218.443 112.619 215.751L123.622 210.549L123.59 210.57Z" fill="#B65B52"/>
<path d="M114.307 198.146C100.526 203.114 118.399 237.448 125.92 241.294C133.44 245.14 146.132 243.57 146.132 243.57L147.029 231.637C147.029 231.637 140.448 230.836 138.483 230.366C135.353 229.618 129.028 215.794 124.766 208.284C122.413 203.903 118.759 200.361 114.307 198.146Z" fill="#263238"/>
<path opacity="0.2" d="M114.307 198.146C100.526 203.114 118.399 237.448 125.92 241.294C133.44 245.14 146.132 243.57 146.132 243.57L147.029 231.637C147.029 231.637 140.448 230.836 138.483 230.366C135.353 229.618 129.028 215.794 124.766 208.284C122.413 203.903 118.759 200.361 114.307 198.146Z" fill="white"/>
<path d="M145.255 230.739L144.144 244.595L148.097 243.858L149.133 231.477L145.255 230.739Z" fill="#263238"/>
<path d="M156.162 168.287C156.707 171.492 155.329 177.71 151.323 175.082C147.317 172.454 155.212 162.796 156.162 168.287Z" fill="#263238"/>
<path d="M133.536 169.43C131.997 177.25 130.694 181.748 133.536 186.683C137.809 194.097 148.31 192.965 152.167 185.754C155.639 179.248 157.572 167.593 150.81 162.604C149.312 161.512 147.563 160.817 145.724 160.582C143.886 160.348 142.018 160.582 140.294 161.264C138.571 161.945 137.047 163.051 135.866 164.478C134.684 165.906 133.883 167.61 133.536 169.43Z" fill="#B55B52"/>
<path d="M129.776 160.809L138.632 160.403L138.867 165.488L138.343 165.2C138.343 165.2 137.788 172.678 133.547 175.167C127.81 170.787 126.122 163.619 129.776 160.809Z" fill="#263238"/>
<path d="M128.857 175.071C128.912 176.058 129.163 177.024 129.593 177.913C130.024 178.802 130.627 179.597 131.367 180.252C133.365 181.993 135.523 180.487 135.94 178.009C136.313 175.776 135.726 172.176 133.258 171.385C132.713 171.226 132.137 171.203 131.582 171.319C131.026 171.435 130.507 171.686 130.072 172.051C129.636 172.416 129.298 172.882 129.086 173.409C128.874 173.936 128.795 174.507 128.857 175.071Z" fill="#B55B52"/>
<path d="M144.668 174.526C144.497 175.156 144.668 175.744 145.116 175.851C145.565 175.958 145.992 175.53 146.185 174.9C146.377 174.27 146.185 173.682 145.736 173.586C145.287 173.49 144.828 173.907 144.668 174.526Z" fill="#263238"/>
<path d="M151.772 176.321C151.611 176.94 151.772 177.539 152.22 177.635C152.669 177.731 153.107 177.314 153.289 176.695C153.47 176.075 153.289 175.477 152.84 175.37C152.391 175.263 151.942 175.691 151.772 176.321Z" fill="#263238"/>
<path d="M149.432 176.064C149.722 178.111 150.297 180.107 151.141 181.993C150.632 182.174 150.089 182.246 149.55 182.204C149.011 182.161 148.487 182.006 148.011 181.748L149.432 176.064Z" fill="#A02724"/>
<path d="M144.016 183.297C144.276 183.407 144.544 183.496 144.818 183.564C144.867 183.574 144.918 183.566 144.962 183.54C145.005 183.514 145.038 183.473 145.053 183.425C145.059 183.4 145.06 183.375 145.057 183.35C145.053 183.325 145.045 183.3 145.032 183.279C145.019 183.257 145.002 183.238 144.982 183.222C144.961 183.207 144.938 183.196 144.914 183.19C144.129 183.015 143.398 182.655 142.782 182.14C142.165 181.626 141.68 180.971 141.367 180.231C141.348 180.184 141.312 180.146 141.267 180.125C141.221 180.103 141.169 180.099 141.121 180.113C141.096 180.12 141.073 180.133 141.054 180.149C141.034 180.166 141.018 180.186 141.007 180.21C140.996 180.233 140.99 180.258 140.989 180.284C140.989 180.31 140.994 180.335 141.004 180.359C141.275 181.03 141.683 181.638 142.202 182.144C142.72 182.65 143.338 183.042 144.016 183.297Z" fill="#263238"/>
<path d="M143.076 171.695C143.138 171.719 143.206 171.725 143.271 171.714C143.337 171.703 143.399 171.674 143.45 171.631C143.819 171.324 144.254 171.107 144.721 170.998C145.189 170.888 145.675 170.889 146.142 171.001C146.189 171.017 146.24 171.024 146.29 171.021C146.341 171.017 146.39 171.003 146.435 170.981C146.479 170.958 146.519 170.926 146.552 170.887C146.584 170.848 146.608 170.803 146.622 170.755C146.639 170.709 146.646 170.66 146.643 170.611C146.64 170.562 146.628 170.514 146.606 170.47C146.584 170.426 146.553 170.387 146.515 170.355C146.478 170.323 146.434 170.299 146.387 170.285C145.8 170.128 145.184 170.115 144.591 170.248C143.998 170.38 143.445 170.653 142.98 171.044C142.94 171.074 142.906 171.112 142.881 171.155C142.856 171.199 142.84 171.247 142.834 171.297C142.828 171.347 142.832 171.397 142.846 171.446C142.86 171.494 142.884 171.539 142.916 171.578C142.959 171.628 143.014 171.668 143.076 171.695Z" fill="#263238"/>
<path d="M155.478 174.654C155.543 174.678 155.613 174.684 155.681 174.672C155.749 174.659 155.813 174.63 155.866 174.586C155.919 174.541 155.959 174.484 155.983 174.419C156.007 174.354 156.013 174.284 156.002 174.216C155.889 173.623 155.636 173.066 155.265 172.59C154.893 172.115 154.413 171.734 153.865 171.482C153.77 171.446 153.665 171.448 153.571 171.488C153.478 171.528 153.403 171.602 153.363 171.695C153.328 171.789 153.33 171.892 153.37 171.984C153.41 172.076 153.484 172.149 153.577 172.187C154.002 172.385 154.374 172.682 154.66 173.054C154.946 173.426 155.139 173.861 155.222 174.323C155.231 174.396 155.259 174.466 155.304 174.524C155.349 174.583 155.41 174.628 155.478 174.654Z" fill="#263238"/>
<path d="M135.608 167.102C135.778 167.245 135.961 167.374 136.153 167.486C136.666 167.793 137.248 167.966 137.845 167.991C138.442 168.015 139.036 167.889 139.572 167.625C141.772 166.557 142.467 160.275 148.727 163.469C149.415 163.304 150.136 163.34 150.803 163.576C151.47 163.811 152.055 164.234 152.487 164.794C154.1 166.77 152.989 173.981 156.429 172.988C159.869 171.994 159.271 170.926 159.271 170.926C159.271 170.926 158.309 171.535 157.743 171.054C158.253 170.625 158.617 170.048 158.783 169.403C158.95 168.757 158.911 168.076 158.673 167.454C158.673 167.454 157.839 168.448 157.284 168.255C157.858 165.338 157.526 162.315 156.333 159.591C154.335 154.613 142.114 155.724 142.114 155.724C142.114 155.724 140.576 153.15 135.053 154.944C129.53 156.739 127.009 163.395 127.885 166.29" fill="#263238"/>
<path d="M208.53 237.95L207.739 234.97H175.338L160.425 236.455L159.858 237.95H208.53Z" fill="#263238"/>
<path opacity="0.5" d="M208.53 237.95L207.739 234.97H175.338L160.425 236.455L159.858 237.95H208.53Z" fill="white"/>
<path opacity="0.2" d="M175.338 234.97V237.95H208.53L207.739 234.97H175.338Z" fill="black"/>
<path d="M186.298 220.698C186.256 221.059 186.291 221.425 186.401 221.772C186.512 222.119 186.695 222.438 186.939 222.708C187.182 222.978 187.481 223.193 187.815 223.338C188.148 223.483 188.509 223.555 188.873 223.55H238.506C239.281 223.531 240.024 223.232 240.595 222.707C241.167 222.183 241.529 221.469 241.614 220.698L244.563 188.927C244.591 188.619 244.569 188.309 244.499 188.008C244.363 187.448 244.04 186.951 243.583 186.6C243.127 186.248 242.564 186.063 241.988 186.074H192.356C191.58 186.093 190.837 186.392 190.266 186.917C189.694 187.441 189.332 188.155 189.247 188.927L186.298 220.698Z" fill="#263238"/>
<path opacity="0.5" d="M186.298 220.698C186.256 221.059 186.291 221.425 186.401 221.772C186.512 222.119 186.695 222.438 186.939 222.708C187.182 222.978 187.481 223.193 187.815 223.338C188.148 223.483 188.509 223.555 188.873 223.55H238.506C239.281 223.531 240.024 223.232 240.595 222.707C241.167 222.183 241.529 221.469 241.614 220.698L244.563 188.927C244.591 188.619 244.569 188.309 244.499 188.008C244.363 187.448 244.04 186.951 243.583 186.6C243.127 186.248 242.564 186.063 241.988 186.074H192.356C191.58 186.093 190.837 186.392 190.266 186.917C189.694 187.441 189.332 188.155 189.247 188.927L186.298 220.698Z" fill="white"/>
<path opacity="0.1" d="M189.087 223.55H238.538C239.313 223.531 240.056 223.232 240.628 222.707C241.199 222.183 241.561 221.469 241.646 220.698L244.595 188.927C244.623 188.619 244.601 188.309 244.531 188.008H195.069C194.295 188.029 193.555 188.33 192.986 188.854C192.416 189.378 192.056 190.091 191.971 190.86L189.023 222.631C188.989 222.939 189.011 223.25 189.087 223.55Z" fill="black"/>
<path d="M223.143 204.064H212.877L215.612 233.464L199.385 235.899V237.95H233.581V235.899L226.573 233.464L223.143 204.064Z" fill="#263238"/>
<path opacity="0.5" d="M223.143 204.064H212.877L215.612 233.464L199.385 235.899V237.95H233.581V235.899L226.573 233.464L223.143 204.064Z" fill="white"/>
<path opacity="0.2" d="M212.877 204.064L220.484 237.48L226.573 237.299L223.144 204.064H212.877Z" fill="white"/>
<path d="M128.131 386.848H190.305C190.466 386.848 190.625 386.816 190.774 386.755C190.922 386.693 191.057 386.602 191.17 386.488C191.283 386.374 191.373 386.238 191.433 386.089C191.494 385.94 191.524 385.781 191.523 385.62V381.656C191.523 381.333 191.395 381.024 191.166 380.795C190.938 380.567 190.628 380.439 190.305 380.439H131.336V253.505H189.301C189.89 253.505 190.455 253.271 190.872 252.854C191.289 252.437 191.523 251.872 191.523 251.283V247.095H128.131C127.281 247.095 126.465 247.433 125.864 248.034C125.263 248.635 124.926 249.45 124.926 250.3V383.643C124.926 384.493 125.263 385.309 125.864 385.91C126.465 386.511 127.281 386.848 128.131 386.848Z" fill="#263238"/>
<g opacity="0.4">
<path d="M128.131 386.848H190.305C190.466 386.848 190.625 386.816 190.774 386.755C190.922 386.693 191.057 386.602 191.17 386.488C191.283 386.374 191.373 386.238 191.433 386.089C191.494 385.94 191.524 385.781 191.523 385.62V381.656C191.523 381.333 191.395 381.024 191.166 380.795C190.938 380.567 190.628 380.439 190.305 380.439H131.336V253.505H189.301C189.89 253.505 190.455 253.271 190.872 252.854C191.289 252.437 191.523 251.872 191.523 251.283V247.095H128.131C127.281 247.095 126.465 247.433 125.864 248.034C125.263 248.635 124.926 249.45 124.926 250.3V383.643C124.926 384.493 125.263 385.309 125.864 385.91C126.465 386.511 127.281 386.848 128.131 386.848Z" fill="white"/>
</g>
<path d="M284.058 248.163L120.161 248.163C119.612 248.163 119.084 247.945 118.696 247.556C118.307 247.168 118.089 246.64 118.089 246.091V241.048L286.13 241.048V246.101C286.128 246.649 285.908 247.174 285.52 247.56C285.131 247.946 284.606 248.163 284.058 248.163Z" fill="#159895"/>
<path opacity="0.2" d="M118.089 244.595L286.13 244.595V241.038L118.089 241.038V244.595Z" fill="black"/>
<path d="M114.573 241.956H289.666C290.196 241.956 290.706 241.746 291.082 241.372C291.458 240.998 291.671 240.49 291.674 239.959C291.674 239.426 291.462 238.915 291.086 238.539C290.709 238.162 290.198 237.95 289.666 237.95H114.573C114.041 237.95 113.53 238.162 113.153 238.539C112.777 238.915 112.565 239.426 112.565 239.959C112.568 240.49 112.781 240.998 113.157 241.372C113.533 241.746 114.043 241.956 114.573 241.956Z" fill="#159895"/>
</svg>
