<svg width="180" height="74" viewBox="0 0 180 74" fill="none" xmlns="http://www.w3.org/2000/svg">
<mask id="mask0_116_2210" style="mask-type:alpha" maskUnits="userSpaceOnUse" x="0" y="0" width="180" height="74">
<mask id="mask1_116_2210" style="mask-type:luminance" maskUnits="userSpaceOnUse" x="0" y="0" width="57" height="74">
<path d="M0 0H56.9483V73.603H0V0Z" fill="white"/>
</mask>
<g mask="url(#mask1_116_2210)">
<path fill-rule="evenodd" clip-rule="evenodd" d="M49.1331 35.7802V35.7746L56.954 38.7686V62.9644L28.4826 73.8632L0.0112305 62.9644V33.7263L7.83211 36.7204V57.5835C13.8426 59.8836 23.6893 63.6555 28.4826 65.4911L49.1331 57.5835V44.1551L43.2905 41.9166V33.5416L49.1331 35.7802ZM7.83211 28.3426V28.3482L0.0112305 25.3514V0H56.954V30.3937L49.1331 27.3997V7.82088H7.83211V19.9677L15.1409 22.7659V13.0171H41.8243V49.785H22.9618V58.2019L15.1409 55.2079V31.1408L7.83211 28.3426ZM22.9618 24.5371V41.9641H34.0034V20.838C34.0034 20.838 28.1496 20.838 22.9618 20.838V24.5371Z" fill="white"/>
</g>
<path d="M81.0782 21.6287C81.0782 23.7413 80.4542 25.3754 79.209 26.531C77.961 27.6811 76.1926 28.2547 73.9037 28.2547H72.4598V34.5338H67.356V15.6182H73.9037C76.2905 15.6182 78.0813 16.1415 79.2762 17.1852C80.4766 18.2233 81.0782 19.7035 81.0782 21.6287ZM72.4598 24.091H73.4C74.1667 24.091 74.7767 23.8756 75.2244 23.4419C75.6777 23.011 75.9072 22.4177 75.9072 21.6622C75.9072 20.3807 75.1964 19.7371 73.7806 19.7371H72.4598V24.091Z" fill="white"/>
<path d="M86.8569 34.5338V15.6182H91.9944V34.5338H86.8569Z" fill="white"/>
<path d="M116.848 34.5338H110.144L103.238 21.2033H103.115C103.277 23.302 103.361 24.9025 103.361 26.005V34.5338H98.8394V15.6182H105.51L112.394 28.7584H112.472C112.352 26.8556 112.293 25.3278 112.293 24.1694V15.6182H116.848V34.5338Z" fill="white"/>
<path d="M122.209 40.4771C121.278 40.4771 120.393 40.382 119.557 40.1973V36.2239C119.834 36.2743 120.127 36.3358 120.441 36.403C120.749 36.4701 121.079 36.5037 121.437 36.5037C122.288 36.5037 122.892 36.2463 123.25 35.7314C123.614 35.2222 123.799 34.3547 123.799 33.1235V15.6182H128.936V32.687C128.936 35.2445 128.371 37.1809 127.246 38.496C126.127 39.8167 124.448 40.4771 122.209 40.4771Z" fill="white"/>
<path d="M147.391 34.5336L146.462 30.9856H140.306L139.355 34.5336H133.736L139.914 15.5397H146.731L152.976 34.5336H147.391ZM145.399 26.7995L144.582 23.6879C144.394 23.0024 144.162 22.1098 143.888 21.0129C143.619 19.916 143.44 19.1297 143.35 18.6512C143.275 19.0933 143.121 19.8209 142.891 20.8338C142.659 21.8411 142.153 23.8306 141.369 26.7995H145.399Z" fill="white"/>
<path d="M166.021 34.5338L162.159 20.9011H162.036C162.215 23.2236 162.305 25.0284 162.305 26.3184V34.5338H157.783V15.6182H164.588L168.539 29.0494H168.64L172.512 15.6182H179.329V34.5338H174.628V26.24C174.628 25.8091 174.633 25.3306 174.65 24.8074C174.664 24.2785 174.72 22.9886 174.818 20.9347H174.706L170.889 34.5338H166.021Z" fill="white"/>
<path d="M105.424 51.3938C105.424 52.4544 105.043 53.2854 104.282 53.8898C103.527 54.4942 102.475 54.7964 101.126 54.7964C99.878 54.7964 98.7756 54.5614 97.813 54.0913V51.7968C98.6021 52.1494 99.2708 52.3984 99.8165 52.5467C100.359 52.6894 100.86 52.7594 101.316 52.7594C101.859 52.7594 102.273 52.6558 102.559 52.446C102.85 52.2389 102.995 51.9283 102.995 51.517C102.995 51.2875 102.931 51.0805 102.805 50.9014C102.676 50.7223 102.492 50.5516 102.245 50.3865C101.999 50.2242 101.495 49.9612 100.734 49.603C100.018 49.2672 99.4807 48.9482 99.1225 48.6404C98.7644 48.3271 98.4762 47.9661 98.2607 47.5548C98.0508 47.1462 97.9473 46.6649 97.9473 46.1109C97.9473 45.0812 98.2971 44.2725 98.9994 43.6821C99.699 43.0861 100.67 42.7867 101.91 42.7867C102.514 42.7867 103.09 42.8622 103.644 43.0105C104.196 43.1532 104.769 43.3547 105.368 43.6149L104.573 45.5401C103.952 45.2882 103.437 45.112 103.029 45.014C102.617 44.9105 102.215 44.8573 101.82 44.8573C101.355 44.8573 100.997 44.9665 100.745 45.1819C100.499 45.4002 100.376 45.6828 100.376 46.0326C100.376 46.2508 100.424 46.4411 100.522 46.6034C100.625 46.7685 100.785 46.928 101.003 47.0847C101.227 47.2358 101.753 47.5044 102.581 47.8905C103.67 48.4138 104.417 48.9399 104.82 49.4687C105.223 49.992 105.424 50.6327 105.424 51.3938Z" fill="white"/>
<path d="M116.346 54.6399H109.619V42.9547H116.346V44.9918H112.104V47.5549H116.055V49.5808H112.104V52.5916H116.346V54.6399Z" fill="white"/>
<path d="M123.346 48.1481H124.14C124.924 48.1481 125.5 48.0194 125.875 47.7564C126.247 47.4962 126.435 47.0848 126.435 46.5252C126.435 45.9656 126.245 45.571 125.864 45.3388C125.483 45.1093 124.893 44.9918 124.096 44.9918H123.346V48.1481ZM123.346 50.1628V54.6399H120.861V42.9547H124.263C125.853 42.9547 127.028 43.2458 127.789 43.8278C128.55 44.4042 128.931 45.28 128.931 46.458C128.931 47.1464 128.74 47.7564 128.36 48.2936C127.985 48.8309 127.453 49.2506 126.759 49.5472C128.519 52.1747 129.664 53.8732 130.196 54.6399H127.453L124.655 50.1628H123.346Z" fill="white"/>
<path d="M140.892 54.6401L140.053 51.8643H135.788L134.938 54.6401H132.274L136.393 42.9102H139.426L143.567 54.6401H140.892ZM139.46 49.7825C138.676 47.2613 138.231 45.837 138.128 45.5069C138.03 45.1795 137.963 44.9192 137.926 44.7234C137.747 45.4033 137.243 47.0906 136.415 49.7825H139.46Z" fill="white"/>
<path d="M151.618 54.6399H149.144V45.0254H145.965V42.9547H154.785V45.0254H151.618V54.6399Z" fill="white"/>
<path d="M168.175 42.9547V50.521C168.175 51.38 167.979 52.1327 167.593 52.7819C167.204 53.4311 166.644 53.932 165.914 54.2817C165.189 54.6259 164.327 54.7966 163.328 54.7966C161.828 54.7966 160.659 54.4132 159.825 53.6437C158.997 52.877 158.583 51.8249 158.583 50.4874V42.9547H161.056V50.1069C161.056 51.0107 161.235 51.6738 161.593 52.0992C161.957 52.5189 162.559 52.7259 163.395 52.7259C164.201 52.7259 164.786 52.5133 165.153 52.088C165.516 51.6626 165.701 50.9995 165.701 50.0957V42.9547H168.175Z" fill="white"/>
<path d="M180 51.3938C180 52.4544 179.619 53.2854 178.858 53.8898C178.103 54.4942 177.05 54.7964 175.702 54.7964C174.454 54.7964 173.351 54.5614 172.389 54.0913V51.7968C173.178 52.1494 173.847 52.3984 174.392 52.5467C174.935 52.6894 175.436 52.7594 175.892 52.7594C176.435 52.7594 176.849 52.6558 177.134 52.446C177.425 52.2389 177.571 51.9283 177.571 51.517C177.571 51.2875 177.507 51.0805 177.381 50.9014C177.252 50.7223 177.067 50.5516 176.821 50.3865C176.575 50.2242 176.071 49.9612 175.31 49.603C174.594 49.2672 174.056 48.9482 173.698 48.6404C173.34 48.3271 173.052 47.9661 172.836 47.5548C172.627 47.1462 172.523 46.6649 172.523 46.1109C172.523 45.0812 172.873 44.2725 173.575 43.6821C174.275 43.0861 175.246 42.7867 176.485 42.7867C177.09 42.7867 177.666 42.8622 178.22 43.0105C178.771 43.1532 179.345 43.3547 179.944 43.6149L179.149 45.5401C178.528 45.2882 178.013 45.112 177.604 45.014C177.193 44.9105 176.79 44.8573 176.396 44.8573C175.931 44.8573 175.573 44.9665 175.321 45.1819C175.075 45.4002 174.952 45.6828 174.952 46.0326C174.952 46.2508 174.999 46.4411 175.097 46.6034C175.201 46.7685 175.36 46.928 175.579 47.0847C175.802 47.2358 176.328 47.5044 177.157 47.8905C178.245 48.4138 178.992 48.9399 179.395 49.4687C179.798 49.992 180 50.6327 180 51.3938Z" fill="white"/>
<path d="M72.1992 41.8785C72.1992 42.8047 71.9446 43.5126 71.4381 44.0051C70.9372 44.4976 70.2125 44.7438 69.2667 44.7438H67.7109V39.1139H69.4346C70.3076 39.1139 70.9848 39.3573 71.4717 39.8414C71.9558 40.3283 72.1992 41.0055 72.1992 41.8785ZM71.5053 41.9009C71.5053 41.1705 71.3206 40.6193 70.9568 40.2444C70.5903 39.8722 70.0418 39.6847 69.3115 39.6847H68.3713V44.173H69.166C69.9411 44.173 70.5231 43.9827 70.912 43.6022C71.3066 43.2216 71.5053 42.6564 71.5053 41.9009Z" fill="white"/>
<path d="M79.6197 39.1139V42.7627C79.6197 43.4063 79.4239 43.91 79.0377 44.2737C78.6488 44.6403 78.1143 44.8222 77.4372 44.8222C76.7572 44.8222 76.2311 44.6403 75.859 44.2737C75.4924 43.9016 75.3105 43.3895 75.3105 42.7403V39.1139H75.9597V42.7851C75.9597 43.2552 76.0856 43.6189 76.3403 43.8708C76.6005 44.1254 76.9811 44.2513 77.4819 44.2513C77.952 44.2513 78.313 44.1254 78.5676 43.8708C78.8278 43.6189 78.9594 43.2552 78.9594 42.7851V39.1139H79.6197Z" fill="white"/>
<path d="M83.0132 44.7438V39.1139H83.6736V44.1506H86.1471V44.7438H83.0132Z" fill="white"/>
<path d="M93.2682 39.1139V42.7627C93.2682 43.4063 93.0723 43.91 92.6861 44.2737C92.2972 44.6403 91.7627 44.8222 91.0856 44.8222C90.4056 44.8222 89.8796 44.6403 89.5074 44.2737C89.1409 43.9016 88.959 43.3895 88.959 42.7403V39.1139H89.6082V42.7851C89.6082 43.2552 89.7341 43.6189 89.9887 43.8708C90.2489 44.1254 90.6295 44.2513 91.1304 44.2513C91.6005 44.2513 91.9614 44.1254 92.2161 43.8708C92.4763 43.6189 92.6078 43.2552 92.6078 42.7851V39.1139H93.2682Z" fill="white"/>
</mask>
<g mask="url(#mask0_116_2210)">
<rect x="-7.74658" y="-10.9367" width="195.949" height="95.2405" fill="white"/>
</g>
</svg>
